<?xml version="1.0" encoding="UTF-8" standalone="no"?>
<!-- Generator: Adobe Illustrator 19.0.0, SVG Export Plug-In . SVG Version: 6.00 Build 0)  -->

<svg
   xmlns:dc="http://purl.org/dc/elements/1.1/"
   xmlns:cc="http://creativecommons.org/ns#"
   xmlns:rdf="http://www.w3.org/1999/02/22-rdf-syntax-ns#"
   xmlns:svg="http://www.w3.org/2000/svg"
   xmlns="http://www.w3.org/2000/svg"
   xmlns:sodipodi="http://sodipodi.sourceforge.net/DTD/sodipodi-0.dtd"
   xmlns:inkscape="http://www.inkscape.org/namespaces/inkscape"
   version="1.1"
   id="Layer_1"
   x="0px"
   y="0px"
   width="140"
   height="100"
   viewBox="0 0 139.99999 100"
   xml:space="preserve"
   inkscape:version="0.91 r13725"
   sodipodi:docname="char_bird.svg"><metadata
     id="metadata83"><rdf:RDF><cc:Work
         rdf:about=""><dc:format>image/svg+xml</dc:format><dc:type
           rdf:resource="http://purl.org/dc/dcmitype/StillImage" /><dc:title /></cc:Work></rdf:RDF></metadata><defs
     id="defs81" /><sodipodi:namedview
     pagecolor="#ffffff"
     bordercolor="#666666"
     borderopacity="1"
     objecttolerance="10"
     gridtolerance="10"
     guidetolerance="10"
     inkscape:pageopacity="0"
     inkscape:pageshadow="2"
     inkscape:window-width="1920"
     inkscape:window-height="1017"
     id="namedview79"
     showgrid="false"
     fit-margin-top="0"
     fit-margin-left="0"
     fit-margin-right="0"
     fit-margin-bottom="0"
     inkscape:zoom="0.41142857"
     inkscape:cx="570.38827"
     inkscape:cy="314.26929"
     inkscape:window-x="-8"
     inkscape:window-y="-8"
     inkscape:window-maximized="1"
     inkscape:current-layer="XMLID_22_" /><style
     type="text/css"
     id="style3">
	.st0{fill:#414042;}
</style><g
     id="XMLID_22_"
     transform="translate(-72.683333,-815.86946)"><g
       id="XMLID_12_"
       transform="translate(-260,216)"><path
         style="fill:#414042"
         inkscape:connector-curvature="0"
         d="m 401,694.7 2.8,-8.2 c 7.7,2.5 17,3.7 28.1,3.7 5.2,0 10.8,-0.3 16.9,-0.8 l 5.4,-0.5 -57,-59.7 c -2.8,-3 -4.9,-6.8 -6.1,-11.2 l 0,-0.1 c -1.6,-5.8 -6.7,-10.1 -12.7,-10.5 -4,-0.3 -7.9,1 -10.9,3.8 -2.7,2.5 -4.4,6.1 -4.6,9.8 l -12,8.8 15.4,1.2 c 0.8,0.9 1.7,1.7 2.7,2.4 1.9,1.3 3,3.3 3.1,5.5 0.9,17.7 5.9,30.3 15.5,38.7 1,0.9 2.1,1.7 3.2,2.5 l -4.5,12.8 4.9,1.7 4.2,-11.8 c 1.2,0.6 2.4,1.2 3.7,1.7 l -3.1,8.5 5,1.7 z m -10.1,-21 c -8.5,-7.4 -13,-18.8 -13.7,-35 -0.2,-3.8 -2.1,-7.3 -5.3,-9.5 -2.4,-1.7 -3.9,-4.5 -3.9,-7.5 0,-2.6 1,-4.9 2.9,-6.7 1.7,-1.6 3.9,-2.4 6.2,-2.4 0.2,0 0.5,0 0.7,0 3.8,0.3 7.1,3 8.1,6.8 l 0,0 c 1.4,5.2 3.9,9.8 7.3,13.4 l 49.5,51.8 c -24.9,1.6 -41.5,-1.9 -51.8,-10.9 z"
         class="st0"
         id="XMLID_132_" /></g></g></svg>