<?xml version="1.0" encoding="UTF-8" standalone="no"?>
<!-- Generator: Adobe Illustrator 19.0.0, SVG Export Plug-In . SVG Version: 6.00 Build 0)  -->

<svg
   xmlns:dc="http://purl.org/dc/elements/1.1/"
   xmlns:cc="http://creativecommons.org/ns#"
   xmlns:rdf="http://www.w3.org/1999/02/22-rdf-syntax-ns#"
   xmlns:svg="http://www.w3.org/2000/svg"
   xmlns="http://www.w3.org/2000/svg"
   xmlns:sodipodi="http://sodipodi.sourceforge.net/DTD/sodipodi-0.dtd"
   xmlns:inkscape="http://www.inkscape.org/namespaces/inkscape"
   version="1.1"
   id="Layer_1"
   x="0px"
   y="0px"
   width="140"
   height="100"
   viewBox="0 0 139.99999 100"
   xml:space="preserve"
   inkscape:version="0.91 r13725"
   sodipodi:docname="char_dragonfly.svg"><metadata
     id="metadata83"><rdf:RDF><cc:Work
         rdf:about=""><dc:format>image/svg+xml</dc:format><dc:type
           rdf:resource="http://purl.org/dc/dcmitype/StillImage" /><dc:title /></cc:Work></rdf:RDF></metadata><defs
     id="defs81" /><sodipodi:namedview
     pagecolor="#ffffff"
     bordercolor="#666666"
     borderopacity="1"
     objecttolerance="10"
     gridtolerance="10"
     guidetolerance="10"
     inkscape:pageopacity="0"
     inkscape:pageshadow="2"
     inkscape:window-width="1920"
     inkscape:window-height="1017"
     id="namedview79"
     showgrid="false"
     fit-margin-top="0"
     fit-margin-left="0"
     fit-margin-right="0"
     fit-margin-bottom="0"
     inkscape:zoom="0.41142857"
     inkscape:cx="401.56181"
     inkscape:cy="33.033138"
     inkscape:window-x="-8"
     inkscape:window-y="-8"
     inkscape:window-maximized="1"
     inkscape:current-layer="XMLID_22_" /><style
     type="text/css"
     id="style3">
	.st0{fill:#414042;}
</style><g
     id="XMLID_22_"
     transform="translate(-72.683333,-815.86946)"><g
       id="XMLID_9_"
       transform="translate(-260,420)"><path
         style="fill:#414042"
         inkscape:connector-curvature="0"
         d="m 334.3,457.4 c 1.3,4.4 5.3,7.3 9.7,7.3 0.9,0 1.9,-0.1 2.8,-0.4 l 49.1,-14.1 0,27 c 0,4.1 2.7,7.3 6.1,7.3 l 2.5,0 c 3.4,0 6.1,-3.2 6.1,-7.3 l 0,-27 49.1,14.1 c 0.9,0.3 1.9,0.4 2.8,0.4 4.4,0 8.4,-2.9 9.7,-7.3 1.5,-5.3 -1.6,-10.9 -6.9,-12.4 l -28.2,-8.1 26.3,-8.8 c 2.5,-0.8 4.6,-2.6 5.8,-5 1.2,-2.4 1.4,-5.1 0.5,-7.7 -0.8,-2.5 -2.6,-4.6 -5,-5.8 -2.4,-1.2 -5.1,-1.4 -7.7,-0.5 l -47,15.7 c -0.3,-0.7 -0.6,-1.3 -1.1,-1.9 1.8,-1.6 3,-4 3,-6.6 0,-4.8 -3.9,-8.8 -8.8,-8.8 -4.8,0 -8.8,3.9 -8.8,8.8 0,2.6 1.2,5 3,6.6 -0.4,0.6 -0.8,1.2 -1.1,1.9 l -47,-15.7 c -2.5,-0.8 -5.3,-0.7 -7.7,0.5 -2.4,1.2 -4.2,3.3 -5,5.8 -0.8,2.5 -0.7,5.3 0.5,7.7 1.2,2.4 3.3,4.2 5.8,5 l 26.3,8.8 -28.2,8.1 c -5,1.5 -8.1,7.1 -6.6,12.4 z M 463.8,450 c 2.6,0.7 4,3.4 3.3,6 -0.7,2.6 -3.4,4 -6,3.3 l -49,-14.1 16.1,-5.4 35.6,10.2 z m -5.1,-36 c 1.2,-0.4 2.5,-0.3 3.7,0.3 1.2,0.6 2,1.6 2.4,2.8 0.8,2.5 -0.5,5.3 -3,6.1 l -33.5,11.2 -16.4,-4.7 46.8,-15.7 z m -39.3,23.3 -8.8,2.9 0,-3.3 c 0,-0.8 -0.1,-1.6 -0.3,-2.3 l 9.1,2.7 z m -14.1,39.8 c 0,1.3 -0.7,2.1 -0.9,2.1 l -2.5,0 c -0.2,0 -0.9,-0.8 -0.9,-2.1 l 0,-40.2 c 0,-1.3 0.7,-2.1 0.9,-2.1 l 2.5,0 c 0.2,0 0.9,0.8 0.9,2.1 l 0,40.2 z m -2.1,-47.5 c -1.2,0 -2.1,-1 -2.1,-2.1 0,-1.1 1,-2.1 2.1,-2.1 1.1,0 2.1,1 2.1,2.1 0,1.1 -0.9,2.1 -2.1,2.1 z m 0,-16.9 c 1.9,0 3.5,1.6 3.5,3.5 0,1.9 -1.6,3.5 -3.5,3.5 -1.9,0 -3.5,-1.6 -3.5,-3.5 0,-1.9 1.6,-3.5 3.5,-3.5 z m -7.3,24.2 0,3.3 -8.8,-2.9 9.1,-2.6 c -0.2,0.6 -0.3,1.4 -0.3,2.2 z m -51.2,-13.7 c -2.5,-0.8 -3.9,-3.6 -3,-6.1 0.4,-1.2 1.3,-2.2 2.4,-2.8 1.2,-0.6 2.5,-0.7 3.7,-0.3 l 46.8,15.6 -16.4,4.7 -33.5,-11.1 z m 33.4,16.6 16.1,5.4 -49,14.1 c -2.6,0.7 -5.2,-0.7 -6,-3.3 -0.7,-2.6 0.7,-5.2 3.3,-6 l 35.6,-10.2 z"
         class="st0"
         id="XMLID_75_" /></g></g></svg>