<?xml version="1.0" encoding="UTF-8" standalone="no"?>
<!-- Generator: Adobe Illustrator 19.0.0, SVG Export Plug-In . SVG Version: 6.00 Build 0)  -->

<svg
   xmlns:dc="http://purl.org/dc/elements/1.1/"
   xmlns:cc="http://creativecommons.org/ns#"
   xmlns:rdf="http://www.w3.org/1999/02/22-rdf-syntax-ns#"
   xmlns:svg="http://www.w3.org/2000/svg"
   xmlns="http://www.w3.org/2000/svg"
   xmlns:sodipodi="http://sodipodi.sourceforge.net/DTD/sodipodi-0.dtd"
   xmlns:inkscape="http://www.inkscape.org/namespaces/inkscape"
   version="1.1"
   id="Layer_1"
   x="0px"
   y="0px"
   width="140"
   height="100"
   viewBox="0 0 139.99999 100"
   xml:space="preserve"
   inkscape:version="0.91 r13725"
   sodipodi:docname="char_owl.svg"><metadata
     id="metadata83"><rdf:RDF><cc:Work
         rdf:about=""><dc:format>image/svg+xml</dc:format><dc:type
           rdf:resource="http://purl.org/dc/dcmitype/StillImage" /><dc:title /></cc:Work></rdf:RDF></metadata><defs
     id="defs81" /><sodipodi:namedview
     pagecolor="#ffffff"
     bordercolor="#666666"
     borderopacity="1"
     objecttolerance="10"
     gridtolerance="10"
     guidetolerance="10"
     inkscape:pageopacity="0"
     inkscape:pageshadow="2"
     inkscape:window-width="1920"
     inkscape:window-height="1017"
     id="namedview79"
     showgrid="false"
     fit-margin-top="0"
     fit-margin-left="0"
     fit-margin-right="0"
     fit-margin-bottom="0"
     inkscape:zoom="0.41142857"
     inkscape:cx="701.905"
     inkscape:cy="202.53019"
     inkscape:window-x="-8"
     inkscape:window-y="-8"
     inkscape:window-maximized="1"
     inkscape:current-layer="XMLID_22_" /><style
     type="text/css"
     id="style3">
	.st0{fill:#414042;}
</style><g
     id="XMLID_22_"
     transform="translate(-72.683333,-815.86946)"><g
       id="XMLID_18_"
       transform="translate(-548,0)"><path
         style="fill:#414042"
         inkscape:connector-curvature="0"
         d="m 685.6,846.6 c 0,-6.4 -5.2,-11.7 -11.7,-11.7 -6.4,0 -11.7,5.2 -11.7,11.7 0,6.4 5.2,11.7 11.7,11.7 6.4,0 11.7,-5.3 11.7,-11.7 z m -18.2,0 c 0,-3.6 2.9,-6.4 6.4,-6.4 3.6,0 6.4,2.9 6.4,6.4 0,3.6 -2.9,6.4 -6.4,6.4 -3.5,0.1 -6.4,-2.8 -6.4,-6.4 z"
         class="st0"
         id="XMLID_175_" /><path
         style="fill:#414042"
         inkscape:connector-curvature="0"
         d="m 719.4,846.6 c 0,-6.4 -5.2,-11.7 -11.7,-11.7 -6.4,0 -11.7,5.2 -11.7,11.7 0,6.4 5.2,11.7 11.7,11.7 6.4,0 11.7,-5.3 11.7,-11.7 z m -18.2,0 c 0,-3.6 2.9,-6.4 6.4,-6.4 3.6,0 6.4,2.9 6.4,6.4 0,3.6 -2.9,6.4 -6.4,6.4 -3.5,0.1 -6.4,-2.8 -6.4,-6.4 z"
         class="st0"
         id="XMLID_178_" /><path
         style="fill:#414042"
         inkscape:connector-curvature="0"
         d="m 734.9,817.1 -5.2,-0.1 c -0.2,9.4 -8.8,10.1 -22,10.1 -7.2,0 -13.5,3.9 -16.9,9.8 -3.4,-5.8 -9.7,-9.8 -16.9,-9.8 -13.2,0 -21.9,-0.7 -22,-10.1 l -5.2,0.1 c 0.2,9.9 6.9,13.4 14.7,14.6 -4.3,3.6 -7,8.9 -7,14.9 0,6.3 3,12 7.7,15.5 -1.9,6 -2.9,12.6 -2.9,19.3 0,30.3 19.8,34.8 31.6,34.8 11.8,0 31.6,-4.5 31.6,-34.8 0,-6.7 -1,-13.3 -2.9,-19.3 4.7,-3.6 7.7,-9.2 7.7,-15.5 0,-6 -2.7,-11.3 -7,-14.9 7.8,-1.2 14.6,-4.7 14.7,-14.6 z m -40.2,50 c 0,3.5 -1.4,6.9 -3.9,9.4 -2.5,-2.5 -3.9,-5.8 -3.9,-9.4 0,-3.5 1.4,-6.9 3.9,-9.4 2.5,2.5 3.9,5.9 3.9,9.4 z m -35.1,-20.5 c 0,-7.9 6.4,-14.3 14.3,-14.3 7.9,0 14.3,6.4 14.3,14.3 0,7.9 -6.4,14.3 -14.3,14.3 -7.9,0 -14.3,-6.4 -14.3,-14.3 z m 31.2,64.5 c -17.5,0 -26.4,-10 -26.4,-29.6 0,-5.8 0.8,-11.5 2.4,-16.7 2.2,0.9 4.6,1.4 7.1,1.4 2.8,0 5.5,-0.6 7.9,-1.7 -0.1,0.9 -0.2,1.8 -0.2,2.7 0,5.9 2.9,11.5 7.6,14.9 l 1.5,1.1 1.5,-1.1 c 4.8,-3.5 7.6,-9 7.6,-14.9 0,-0.9 -0.1,-1.8 -0.2,-2.7 2.4,1.1 5.1,1.7 7.9,1.7 2.5,0 4.9,-0.5 7.1,-1.3 1.5,5.2 2.4,10.9 2.4,16.7 0.2,19.5 -8.7,29.5 -26.2,29.5 z M 722,846.6 c 0,7.9 -6.4,14.3 -14.3,14.3 -7.9,0 -14.3,-6.4 -14.3,-14.3 0,-7.9 6.4,-14.3 14.3,-14.3 7.9,0 14.3,6.4 14.3,14.3 z"
         class="st0"
         id="XMLID_184_" /></g></g></svg>