<?xml version="1.0" encoding="UTF-8" standalone="no"?>
<!-- Generator: Adobe Illustrator 19.0.0, SVG Export Plug-In . SVG Version: 6.00 Build 0)  -->

<svg
   xmlns:dc="http://purl.org/dc/elements/1.1/"
   xmlns:cc="http://creativecommons.org/ns#"
   xmlns:rdf="http://www.w3.org/1999/02/22-rdf-syntax-ns#"
   xmlns:svg="http://www.w3.org/2000/svg"
   xmlns="http://www.w3.org/2000/svg"
   xmlns:sodipodi="http://sodipodi.sourceforge.net/DTD/sodipodi-0.dtd"
   xmlns:inkscape="http://www.inkscape.org/namespaces/inkscape"
   version="1.1"
   id="Layer_1"
   x="0px"
   y="0px"
   width="140"
   height="100"
   viewBox="0 0 139.99999 100"
   xml:space="preserve"
   inkscape:version="0.91 r13725"
   sodipodi:docname="char_ladybug.svg"><metadata
     id="metadata83"><rdf:RDF><cc:Work
         rdf:about=""><dc:format>image/svg+xml</dc:format><dc:type
           rdf:resource="http://purl.org/dc/dcmitype/StillImage" /><dc:title /></cc:Work></rdf:RDF></metadata><defs
     id="defs81" /><sodipodi:namedview
     pagecolor="#ffffff"
     bordercolor="#666666"
     borderopacity="1"
     objecttolerance="10"
     gridtolerance="10"
     guidetolerance="10"
     inkscape:pageopacity="0"
     inkscape:pageshadow="2"
     inkscape:window-width="1920"
     inkscape:window-height="1017"
     id="namedview79"
     showgrid="false"
     fit-margin-top="0"
     fit-margin-left="0"
     fit-margin-right="0"
     fit-margin-bottom="0"
     inkscape:zoom="0.82285714"
     inkscape:cx="295.49206"
     inkscape:cy="269.87901"
     inkscape:window-x="-8"
     inkscape:window-y="-8"
     inkscape:window-maximized="1"
     inkscape:current-layer="XMLID_22_" /><style
     type="text/css"
     id="style3">
	.st0{fill:#414042;}
</style><g
     id="XMLID_22_"
     transform="translate(-72.683333,-815.86946)"><g
       id="XMLID_17_"
       transform="translate(-260,0)"><path
         style="fill:#414042"
         inkscape:connector-curvature="0"
         d="m 360.9,874 c 0,23.3 19,42.3 42.3,42.3 23.3,0 42.3,-19 42.3,-42.3 0,-18.3 -11.7,-33.9 -28,-39.8 -0.3,-3.5 -1.8,-6.6 -4.1,-8.9 l 4.1,-6.8 -4.5,-2.7 -3.9,6.5 c -1.9,-0.9 -3.9,-1.4 -6.1,-1.4 -2.1,0 -4.2,0.5 -6,1.3 l -3.9,-6.4 -4.5,2.7 4,6.7 c -2.3,2.4 -3.9,5.5 -4.2,9 -15.9,5.9 -27.5,21.5 -27.5,39.8 z m 79.4,0 c 0,19.6 -15.3,35.7 -34.5,37 l 0,-74 c 19.3,1.3 34.5,17.4 34.5,37 z m -37.1,-47.9 c 4.1,0 7.6,2.7 8.8,6.5 -2.8,-0.6 -5.8,-0.9 -8.8,-0.9 -3.1,0 -6,0.3 -8.9,1 1.2,-3.9 4.7,-6.6 8.9,-6.6 z m -2.6,10.9 0,74 c -19.2,-1.3 -34.5,-17.4 -34.5,-37 0,-19.6 15.3,-35.7 34.5,-37 z"
         class="st0"
         id="XMLID_164_" /><circle
         style="fill:#414042"
         r="4.3000002"
         cy="853.09998"
         cx="389.5"
         class="st0"
         id="XMLID_137_" /><circle
         style="fill:#414042"
         r="4.3000002"
         cy="868.5"
         cx="375.29999"
         class="st0"
         id="XMLID_159_" /><circle
         style="fill:#414042"
         r="4.3000002"
         cy="877.09998"
         cx="391.10001"
         class="st0"
         id="XMLID_160_" /><circle
         style="fill:#414042"
         r="4.3000002"
         cy="894.5"
         cx="382.5"
         class="st0"
         id="XMLID_161_" /><circle
         style="fill:#414042"
         r="4.3000002"
         cy="853.09998"
         cx="416.89999"
         class="st0"
         id="XMLID_167_" /><circle
         style="fill:#414042"
         r="4.3000002"
         cy="868.5"
         cx="431.20001"
         class="st0"
         id="XMLID_168_" /><circle
         style="fill:#414042"
         r="4.3000002"
         cy="877.09998"
         cx="415.39999"
         class="st0"
         id="XMLID_169_" /><circle
         style="fill:#414042"
         r="4.3000002"
         cy="894.5"
         cx="424"
         class="st0"
         id="XMLID_170_" /></g></g></svg>