<?xml version="1.0" encoding="UTF-8" standalone="no"?>
<!-- Generator: Adobe Illustrator 19.0.0, SVG Export Plug-In . SVG Version: 6.00 Build 0)  -->

<svg
   xmlns:dc="http://purl.org/dc/elements/1.1/"
   xmlns:cc="http://creativecommons.org/ns#"
   xmlns:rdf="http://www.w3.org/1999/02/22-rdf-syntax-ns#"
   xmlns:svg="http://www.w3.org/2000/svg"
   xmlns="http://www.w3.org/2000/svg"
   xmlns:sodipodi="http://sodipodi.sourceforge.net/DTD/sodipodi-0.dtd"
   xmlns:inkscape="http://www.inkscape.org/namespaces/inkscape"
   version="1.1"
   id="Layer_1"
   x="0px"
   y="0px"
   width="140"
   height="100"
   viewBox="0 0 139.99999 100"
   xml:space="preserve"
   inkscape:version="0.91 r13725"
   sodipodi:docname="char_pig.svg"><metadata
     id="metadata83"><rdf:RDF><cc:Work
         rdf:about=""><dc:format>image/svg+xml</dc:format><dc:type
           rdf:resource="http://purl.org/dc/dcmitype/StillImage" /><dc:title /></cc:Work></rdf:RDF></metadata><defs
     id="defs81" /><sodipodi:namedview
     pagecolor="#ffffff"
     bordercolor="#666666"
     borderopacity="1"
     objecttolerance="10"
     gridtolerance="10"
     guidetolerance="10"
     inkscape:pageopacity="0"
     inkscape:pageshadow="2"
     inkscape:window-width="1920"
     inkscape:window-height="1017"
     id="namedview79"
     showgrid="false"
     fit-margin-top="0"
     fit-margin-left="0"
     fit-margin-right="0"
     fit-margin-bottom="0"
     inkscape:zoom="0.41142857"
     inkscape:cx="699.76932"
     inkscape:cy="342.06127"
     inkscape:window-x="-8"
     inkscape:window-y="-8"
     inkscape:window-maximized="1"
     inkscape:current-layer="XMLID_22_" /><style
     type="text/css"
     id="style3">
	.st0{fill:#414042;}
</style><g
     id="XMLID_22_"
     transform="translate(-72.683333,-815.86946)"><g
       id="XMLID_13_"
       transform="translate(-548,214)"><path
         style="fill:#414042"
         inkscape:connector-curvature="0"
         d="m 682.9,645.6 c 0,-6 -6,-10.7 -13.6,-10.7 -7.6,0 -13.6,4.7 -13.6,10.7 0,6 6,10.7 13.6,10.7 7.6,0 13.6,-4.7 13.6,-10.7 z m -22,0 c 0,-2.9 3.8,-5.4 8.4,-5.4 4.6,0 8.4,2.5 8.4,5.4 0,2.9 -3.8,5.4 -8.4,5.4 -4.6,0 -8.4,-2.5 -8.4,-5.4 z"
         class="st0"
         id="XMLID_135_" /><circle
         style="fill:#414042"
         r="1.6"
         cy="645.59998"
         cx="665.79999"
         class="st0"
         id="XMLID_89_" /><circle
         style="fill:#414042"
         r="1.6"
         cy="645.59998"
         cx="672.79999"
         class="st0"
         id="XMLID_114_" /><path
         style="fill:#414042"
         inkscape:connector-curvature="0"
         d="m 700.4,614 0,-2.4 -2.4,-0.2 c -6.1,-0.5 -10.2,1.8 -12.1,3.2 -4.5,-3.6 -10.1,-5.5 -16.7,-5.5 -6.5,0 -12,1.9 -16.4,5.6 -1.8,-1.4 -6,-3.9 -12.3,-3.3 l -2.4,0.2 0,2.4 c 0.1,8.2 4.4,12.2 6.1,13.5 -1.3,3.5 -2.3,7.4 -2.9,11.8 -1.3,9.4 3.5,18.5 11.9,22.7 4.5,2.3 9,3.6 13.4,3.9 l 0,28.8 16.5,0 0,-12 c 0,-0.6 0.5,-1.1 1.1,-1.1 l 34.9,0 c 0.6,0 1.1,0.5 1.1,1.1 l 0,12 16.5,0 0,-34.6 c 0,-5.2 -1.7,-10.1 -4.5,-14.1 1.2,-0.5 2.3,-1 3.4,-1.8 1.2,-0.9 2.1,-2 2.7,-3.2 0.9,-0.4 1.6,-1.1 2.2,-1.9 1.4,-1.9 2,-4.6 1.5,-6.9 -0.7,-3 -3.2,-5.4 -6.1,-6.1 -0.7,-0.1 -1.4,0.3 -1.6,1 -0.2,0.7 0.3,1.4 1,1.6 2,0.4 3.7,2.1 4.1,4.1 0.3,1.3 0.1,2.8 -0.6,4.1 -0.6,-2.3 -2.8,-4.6 -5,-4.9 -1.6,-0.2 -2.9,0.4 -3.6,1.7 -0.9,1.6 -0.7,4.1 0.5,5.6 1,1.2 2.4,2.1 3.9,2.3 -0.2,0.2 -0.4,0.3 -0.6,0.5 -1,0.8 -2.3,1.3 -3.5,1.8 -4.4,-4.9 -10.9,-8 -18,-8 l -15.6,0 c -0.5,-3.1 -1.3,-6 -2.3,-8.6 1.8,-1.5 5.7,-5.5 5.8,-13.3 z m 32.4,23.8 c -0.6,-0.7 -0.7,-2 -0.3,-2.7 0.1,-0.2 0.3,-0.4 0.8,-0.4 0.1,0 0.2,0 0.2,0 1.3,0.2 2.8,2 2.9,3.4 0,0.3 0,0.7 -0.1,1 -0.2,0 -0.4,0.1 -0.5,0.1 -1.2,0 -2.3,-0.5 -3,-1.4 z m -89.3,-21.2 c 2.6,0.2 4.5,1.2 5.6,1.9 -1,1.2 -1.9,2.6 -2.7,4.1 -1,-1 -2.3,-2.9 -2.9,-6 z m 12,40.7 c -6.4,-3.2 -10.1,-10.1 -9.1,-17.3 1.6,-11.7 6.9,-25.8 22.7,-25.8 16.6,0 21.7,14.1 23,25.9 0.8,7 -2.9,13.8 -9.2,17 -4.8,2.4 -9.4,3.6 -13.9,3.6 -4.2,0.1 -8.8,-1 -13.5,-3.4 z m 42,-16.2 15,0 c 10.5,0 19,8.5 19,19 l 0,29.4 -6,0 0,-6.8 c 0,-3.5 -2.9,-6.4 -6.4,-6.4 l -34.9,0 c -3.5,0 -6.4,2.8 -6.4,6.4 l 0,6.8 -6,0 0,-23.6 c 4.4,-0.4 9,-1.8 13.6,-4.1 7.8,-3.9 12.5,-12.1 12.1,-20.7 z m -5.2,-18.8 c -0.8,-1.4 -1.7,-2.8 -2.7,-4 1.1,-0.7 2.9,-1.5 5.3,-1.7 -0.5,2.8 -1.7,4.6 -2.6,5.7 z"
         class="st0"
         id="XMLID_144_" /></g></g></svg>