<?xml version="1.0" encoding="UTF-8" standalone="no"?>
<!-- Generator: Adobe Illustrator 19.0.0, SVG Export Plug-In . SVG Version: 6.00 Build 0)  -->

<svg
   xmlns:dc="http://purl.org/dc/elements/1.1/"
   xmlns:cc="http://creativecommons.org/ns#"
   xmlns:rdf="http://www.w3.org/1999/02/22-rdf-syntax-ns#"
   xmlns:svg="http://www.w3.org/2000/svg"
   xmlns="http://www.w3.org/2000/svg"
   xmlns:sodipodi="http://sodipodi.sourceforge.net/DTD/sodipodi-0.dtd"
   xmlns:inkscape="http://www.inkscape.org/namespaces/inkscape"
   version="1.1"
   id="Layer_1"
   x="0px"
   y="0px"
   width="140"
   height="100"
   viewBox="0 0 139.99999 100"
   xml:space="preserve"
   inkscape:version="0.91 r13725"
   sodipodi:docname="animal_icons_lion_140x100.svg"><metadata
     id="metadata83"><rdf:RDF><cc:Work
         rdf:about=""><dc:format>image/svg+xml</dc:format><dc:type
           rdf:resource="http://purl.org/dc/dcmitype/StillImage" /><dc:title></dc:title></cc:Work></rdf:RDF></metadata><defs
     id="defs81" /><sodipodi:namedview
     pagecolor="#ffffff"
     bordercolor="#666666"
     borderopacity="1"
     objecttolerance="10"
     gridtolerance="10"
     guidetolerance="10"
     inkscape:pageopacity="0"
     inkscape:pageshadow="2"
     inkscape:window-width="1920"
     inkscape:window-height="1017"
     id="namedview79"
     showgrid="false"
     fit-margin-top="0"
     fit-margin-left="0"
     fit-margin-right="0"
     fit-margin-bottom="0"
     inkscape:zoom="4.6547829"
     inkscape:cx="106.58388"
     inkscape:cy="67.107148"
     inkscape:window-x="-8"
     inkscape:window-y="-8"
     inkscape:window-maximized="1"
     inkscape:current-layer="XMLID_22_" /><style
     type="text/css"
     id="style3">
	.st0{fill:#414042;}
</style><g
     id="XMLID_22_"
     transform="translate(-72.683333,-815.86946)"><g
       id="XMLID_21_"
       transform="translate(28,428)"><g
         id="XMLID_3_"><path
           id="XMLID_60_"
           class="st0"
           d="m 631.1,242.2 c 0,6.4 4.8,14 27.5,14 l 81.9,0 -0.1,-1.7 c 1.6,1.1 3.6,1.7 5.7,1.7 5.8,0 10.5,-4.7 10.5,-10.5 0,-5.8 -4.7,-10.5 -10.5,-10.5 -2.8,0 -5.4,1.1 -7.3,2.9 -2.9,-14.7 -10.7,-26.9 -31.7,-28 -14.3,-0.8 -25.4,5 -33,10.3 l -26.1,-66 -2.2,5.7 c -11.3,28.6 -1,46 8.9,55.2 -10.9,2.8 -23.6,16.6 -23.6,26.9 z m 115.1,-2.3 c 3.2,0 5.7,2.6 5.7,5.7 0,3.2 -2.6,5.7 -5.7,5.7 -3.2,0 -5.7,-2.6 -5.7,-5.7 0,-3.1 2.6,-5.7 5.7,-5.7 z M 707,214.8 c 19,1 27.4,11.6 28.6,36.5 l -44.5,0 c 3,-3.1 9.5,-3.7 9.6,-3.7 l 2.9,-0.2 -0.8,-2.8 c 0,-0.1 -1.6,-6.2 3.5,-10.6 5.8,-5 16.3,1.1 16.4,1.2 l 2.5,-4.1 c -0.6,-0.3 -13.6,-8 -22,-0.7 -5,4.3 -5.6,9.7 -5.4,12.9 -3.7,0.7 -10.3,2.7 -12.3,8.1 l -13.5,0 c 4.6,-3.8 7.5,-9.5 7.5,-15.9 0,-3.9 -1.1,-7.6 -3,-10.8 7,-5 17.3,-10.6 30.5,-9.9 z m -58.8,-47 19.3,48.9 c -1.7,-0.8 -3.6,-1.4 -5.6,-1.7 -10.7,-8 -21.2,-22.5 -13.7,-47.2 z m 10.4,51.7 c 8.8,0 15.9,7.2 15.9,15.9 0,8.8 -7.2,15.9 -15.9,15.9 -10.3,0 -22.7,-1.6 -22.7,-9.2 0.1,-8.8 13.8,-22.6 22.7,-22.6 z"
           inkscape:connector-curvature="0"
           style="fill:#414042" /></g><g
         id="XMLID_5_"><path
           id="XMLID_57_"
           class="st0"
           d="m 1330.4,195.6 -4.7,0.8 c -8.5,1.4 -16,6.7 -20.3,14.2 -12.5,-11.2 -28.4,-17.3 -45.3,-17.3 -22.7,0 -43.9,11.3 -56.5,30.2 l -1,1.5 1,1.5 c 12.7,18.9 33.8,30.2 56.5,30.2 16.9,0 32.8,-6.1 45.3,-17.3 4.3,7.4 11.8,12.8 20.3,14.2 l 4.7,0.8 -1.8,-4.4 c -3.3,-7.9 -5,-16.3 -5,-25 0,-8.7 1.7,-17.1 5,-25 l 1.8,-4.4 z m -8.5,51.5 c -5.9,-2.3 -10.8,-7.1 -13.3,-13 l -1.5,-3.6 -2.8,2.7 c -11.8,11.7 -27.5,18.2 -44.2,18.2 -7.4,0 -14.6,-1.3 -21.4,-3.8 7.5,-9.1 5.4,-21.1 5.3,-21.6 l -5.1,0.9 c 0,0.1 1.9,11.2 -5.3,18.6 -9.7,-4.5 -18.3,-11.5 -24.7,-20.5 11.8,-16.6 30.8,-26.4 51.2,-26.4 16.7,0 32.4,6.5 44.2,18.2 l 2.8,2.7 1.5,-3.6 c 2.5,-6 7.4,-10.7 13.3,-13 -2.4,7.1 -3.6,14.5 -3.6,22.1 0,7.6 1.2,15 3.6,22.1 z"
           inkscape:connector-curvature="0"
           style="fill:#414042" /><circle
           id="XMLID_53_"
           class="st0"
           cx="1225.8"
           cy="220"
           r="3.3"
           style="fill:#414042" /></g><g
         id="XMLID_9_"><path
           id="XMLID_75_"
           class="st0"
           d="m 334.3,457.4 c 1.3,4.4 5.3,7.3 9.7,7.3 0.9,0 1.9,-0.1 2.8,-0.4 l 49.1,-14.1 0,27 c 0,4.1 2.7,7.3 6.1,7.3 l 2.5,0 c 3.4,0 6.1,-3.2 6.1,-7.3 l 0,-27 49.1,14.1 c 0.9,0.3 1.9,0.4 2.8,0.4 4.4,0 8.4,-2.9 9.7,-7.3 1.5,-5.3 -1.6,-10.9 -6.9,-12.4 l -28.2,-8.1 26.3,-8.8 c 2.5,-0.8 4.6,-2.6 5.8,-5 1.2,-2.4 1.4,-5.1 0.5,-7.7 -0.8,-2.5 -2.6,-4.6 -5,-5.8 -2.4,-1.2 -5.1,-1.4 -7.7,-0.5 l -47,15.7 c -0.3,-0.7 -0.6,-1.3 -1.1,-1.9 1.8,-1.6 3,-4 3,-6.6 0,-4.8 -3.9,-8.8 -8.8,-8.8 -4.8,0 -8.8,3.9 -8.8,8.8 0,2.6 1.2,5 3,6.6 -0.4,0.6 -0.8,1.2 -1.1,1.9 l -47,-15.7 c -2.5,-0.8 -5.3,-0.7 -7.7,0.5 -2.4,1.2 -4.2,3.3 -5,5.8 -0.8,2.5 -0.7,5.3 0.5,7.7 1.2,2.4 3.3,4.2 5.8,5 l 26.3,8.8 -28.2,8.1 c -5,1.5 -8.1,7.1 -6.6,12.4 z M 463.8,450 c 2.6,0.7 4,3.4 3.3,6 -0.7,2.6 -3.4,4 -6,3.3 l -49,-14.1 16.1,-5.4 35.6,10.2 z m -5.1,-36 c 1.2,-0.4 2.5,-0.3 3.7,0.3 1.2,0.6 2,1.6 2.4,2.8 0.8,2.5 -0.5,5.3 -3,6.1 l -33.5,11.2 -16.4,-4.7 46.8,-15.7 z m -39.3,23.3 -8.8,2.9 0,-3.3 c 0,-0.8 -0.1,-1.6 -0.3,-2.3 l 9.1,2.7 z m -14.1,39.8 c 0,1.3 -0.7,2.1 -0.9,2.1 l -2.5,0 c -0.2,0 -0.9,-0.8 -0.9,-2.1 l 0,-40.2 c 0,-1.3 0.7,-2.1 0.9,-2.1 l 2.5,0 c 0.2,0 0.9,0.8 0.9,2.1 l 0,40.2 z m -2.1,-47.5 c -1.2,0 -2.1,-1 -2.1,-2.1 0,-1.1 1,-2.1 2.1,-2.1 1.1,0 2.1,1 2.1,2.1 0,1.1 -0.9,2.1 -2.1,2.1 z m 0,-16.9 c 1.9,0 3.5,1.6 3.5,3.5 0,1.9 -1.6,3.5 -3.5,3.5 -1.9,0 -3.5,-1.6 -3.5,-3.5 0,-1.9 1.6,-3.5 3.5,-3.5 z m -7.3,24.2 0,3.3 -8.8,-2.9 9.1,-2.6 c -0.2,0.6 -0.3,1.4 -0.3,2.2 z m -51.2,-13.7 c -2.5,-0.8 -3.9,-3.6 -3,-6.1 0.4,-1.2 1.3,-2.2 2.4,-2.8 1.2,-0.6 2.5,-0.7 3.7,-0.3 l 46.8,15.6 -16.4,4.7 -33.5,-11.1 z m 33.4,16.6 16.1,5.4 -49,14.1 c -2.6,0.7 -5.2,-0.7 -6,-3.3 -0.7,-2.6 0.7,-5.2 3.3,-6 l 35.6,-10.2 z"
           inkscape:connector-curvature="0"
           style="fill:#414042" /></g><g
         id="XMLID_8_"><path
           id="XMLID_71_"
           class="st0"
           d="m 635.1,401.5 c -6,6 -3.3,16.9 -0.6,27.5 1.6,6.6 3.3,13.3 2.2,16.9 -2.7,8.3 -1.2,16.5 3.8,21.4 2,1.9 5.6,4.4 11.6,4.4 2.7,0 5.9,-0.5 9.6,-1.9 7.9,-2.8 16.9,-8.5 22,-11.9 l 0,14.2 c 0,4 2.6,7.1 5.9,7.1 l 2.4,0 c 3.3,0 5.9,-3.1 5.9,-7.1 l 0,-14.2 c 5.1,3.4 14.1,9.1 22,11.9 3.7,1.3 6.9,1.9 9.6,1.9 5.9,0 9.6,-2.5 11.6,-4.4 5,-4.8 6.5,-13 3.8,-21.4 -1.2,-3.6 0.5,-10.4 2.2,-16.9 2.6,-10.6 5.4,-21.5 -0.6,-27.5 -9.8,-9.9 -27,0.6 -49.7,19.8 -0.1,-0.1 -0.2,-0.2 -0.3,-0.4 1.7,-1.5 2.8,-3.8 2.8,-6.2 0,-4.6 -3.8,-8.4 -8.4,-8.4 -4.6,0 -8.4,3.8 -8.4,8.4 0,2.5 1.1,4.7 2.8,6.2 -0.1,0.1 -0.2,0.2 -0.3,0.4 -22.8,-19.2 -40,-29.6 -49.9,-19.8 z m 62.4,26 c 25.4,-21.8 39,-28.5 45.2,-22.3 3.9,3.9 1.4,13.8 -0.7,22.5 -1.9,7.6 -3.7,14.8 -2.1,19.8 2.1,6.4 1.1,12.6 -2.4,16 -3.4,3.3 -9,3.8 -15.8,1.3 -9.1,-3.3 -20.3,-10.9 -23.8,-13.3 l 0,-17.4 c 0,-1.8 -0.5,-3.4 -1.4,-4.7 0.4,-0.5 0.8,-1.2 1,-1.9 z m -4.9,44.6 c 0,1.1 -0.5,1.8 -0.7,1.8 l -2.3,0 c -0.2,-0.1 -0.7,-0.7 -0.7,-1.9 l 0,-37.9 c 0,-1.1 0.5,-1.8 0.7,-1.8 l 2.4,0 c 0.2,0.1 0.7,0.8 0.7,1.8 l 0,38 z m -1.8,-45 c -1,0 -1.9,-0.8 -1.9,-1.9 0,-1 0.8,-1.9 1.9,-1.9 1.1,0 1.9,0.8 1.9,1.9 -0.1,1.1 -0.9,1.9 -1.9,1.9 z m 0,-15.6 c 1.7,0 3.2,1.4 3.2,3.2 0,1.7 -1.4,3.2 -3.2,3.2 -1.8,0 -3.2,-1.4 -3.2,-3.2 0,-1.7 1.4,-3.2 3.2,-3.2 z m -7.1,22.7 0,17.4 c -3.5,2.4 -14.7,10.1 -23.8,13.3 -6.8,2.4 -12.4,2 -15.8,-1.3 -3.6,-3.4 -4.5,-9.6 -2.4,-16 1.6,-5 -0.2,-12.2 -2.1,-19.8 -2.2,-8.7 -4.7,-18.6 -0.7,-22.5 6.2,-6.2 19.8,0.4 45.2,22.3 0.2,0.7 0.6,1.4 1.1,2 -1,1.1 -1.5,2.8 -1.5,4.6 z"
           inkscape:connector-curvature="0"
           style="fill:#414042" /></g><g
         id="XMLID_7_"><path
           id="XMLID_67_"
           class="st0"
           d="m 953.4,390.3 -4.9,0 c -3.5,0 -6.3,2.8 -6.3,6.4 0,0.6 -0.5,1.1 -1.1,1.1 l -6,0 c -4.4,0 -8,3.4 -8.1,7.7 -0.1,2.2 0.7,4.2 2.2,5.8 1.5,1.6 3.5,2.4 5.7,2.4 l 6.2,0 c 0.6,0 1.1,0.5 1.1,1.1 l 0,24.3 c 0,7.1 3.9,13.6 10.2,17 1.2,0.6 1.9,1.8 1.9,3 l 0,27.5 14.2,0 0,-24.9 c 0,-1.9 1.5,-3.4 3.4,-3.4 l 28.7,0 c 2.5,5.7 7.2,8.9 10.7,10.5 l 0,17.7 14.2,0 0,-35 c 0.7,-2.1 3.8,-12.1 4.4,-16 0.4,-3.3 -0.6,-6.5 -2.9,-9.1 -2.6,-3 -6.6,-4.8 -10.7,-4.8 l -4.1,0 c -0.4,0 -0.7,-0.2 -0.9,-0.5 l -4.2,-7 c -1.1,-1.9 -3.1,-3 -5.3,-3 0,0 -0.1,0 -0.1,0 -2.2,0 -4.2,1.1 -5.3,2.9 l -4.5,7.1 c -0.2,0.3 -0.6,0.5 -0.9,0.5 l -0.6,0 c -0.4,0 -0.7,-0.2 -0.9,-0.5 l -4.2,-7 c -1.1,-1.9 -3.1,-3 -5.3,-3 0,0 0,0 -0.1,0 -2.2,0 -4.2,1.1 -5.3,2.9 l -4.5,7.1 c -0.2,0.3 -0.6,0.5 -0.9,0.5 -0.6,0 -1.1,-0.5 -1.1,-1.1 l 0,-16 c -0.4,-7.8 -6.8,-14.2 -14.7,-14.2 z m 15.4,36.6 c 2.2,0 4.2,-1.1 5.3,-2.9 l 4.5,-7.1 c 0.3,-0.4 0.7,-0.5 0.9,-0.5 0.2,0 0.7,0.1 0.9,0.5 l 4.2,7 c 1.1,1.9 3.2,3 5.4,3 l 0.6,0 c 2.2,0 4.2,-1.1 5.3,-2.9 l 4.5,-7.1 c 0.3,-0.5 0.7,-0.5 0.9,-0.5 0.2,0 0.7,0.1 0.9,0.5 l 4.2,7 c 1.1,1.9 3.2,3 5.4,3 l 4.1,0 c 2.5,0 5.1,1.2 6.7,3 0.9,1 1.9,2.7 1.6,4.9 -0.4,3.2 -3.2,12.3 -4.3,15.5 l -0.1,0.4 0,30.6 -3.8,0 0,-16 -1.7,-0.7 c -2.9,-1.1 -8.1,-3.9 -10,-9.8 l -0.6,-1.8 -32.4,0 c -4.7,0 -8.6,3.9 -8.6,8.6 l 0,19.6 -3.8,0 0,-22.2 c 0,-3.2 -1.8,-6.1 -4.7,-7.6 -4.6,-2.4 -7.4,-7.2 -7.4,-12.3 l 0,-24.3 c 0,-3.5 -2.9,-6.4 -6.4,-6.4 l -6.2,0 c -0.7,0 -1.4,-0.3 -1.9,-0.8 -0.5,-0.5 -0.8,-1.2 -0.8,-2 0,-1.4 1.4,-2.6 2.9,-2.6 l 6,0 c 3.4,0 6.3,-2.8 6.4,-6.2 0,-0.6 0.4,-1.3 1.1,-1.3 l 4.9,0 c 5,0 9.1,4.1 9.1,9.1 l 0,16 c 0.6,3.5 3.4,6.3 6.9,6.3 z"
           inkscape:connector-curvature="0"
           style="fill:#414042" /></g><g
         id="XMLID_1_"><path
           id="XMLID_92_"
           class="st0"
           d="m 44.9,218.2 c -0.5,0 -0.8,0.5 -0.8,0.9 0,0.5 0.4,0.8 0.9,0.8 0,0 0,0 0.1,0 l 10.7,-0.8 c 0,0.7 0.1,1.2 0.1,1.3 l 0.1,1 0.7,0.7 c 0.1,0.1 1.3,1.3 3.3,2.8 l -12.6,5 c -0.4,0.2 -0.7,0.7 -0.5,1.1 0.1,0.3 0.5,0.5 0.8,0.5 0.1,0 0.2,0 0.3,-0.1 L 61.5,226 c 4.5,3.2 11.8,7.4 20.3,8.1 l 0,28.9 16.5,0 0,-12 c 0,-0.6 0.5,-1.1 1.1,-1.1 l 34.9,0 c 0.6,0 1.1,0.5 1.1,1.1 l 0,12 16.6,0 0,-34.6 c 0,-2.8 -0.5,-5.4 -1.3,-7.9 17.7,-10.3 22.9,-27.9 13.8,-47.7 -0.8,-1.7 -2.2,-3 -3.9,-3.6 -1.7,-0.6 -3.6,-0.6 -5.3,0.2 -1.7,0.8 -3,2.2 -3.6,3.9 -0.6,1.7 -0.6,3.6 0.2,5.3 6.3,13.6 3.1,23.9 -9.4,30.5 -4.1,-3.1 -9.2,-5 -14.7,-5 l -15.6,0 c -0.3,-1.7 -0.7,-3.5 -1.2,-5.2 3.1,-2.7 8.5,-9.1 8.6,-20.8 l 0,-2.4 -2.4,-0.2 c -9.8,-0.9 -16.4,2.8 -19.5,5 -3.8,-2.1 -8.2,-3.2 -13.3,-3.2 -5,0 -9.3,1.1 -13.1,3.3 -2.9,-2.2 -9.7,-6 -19.6,-5.2 l -2.4,0.2 0,2.4 c 0.2,12.2 6,18.6 9,21.1 -1,3.4 -1.6,6.8 -1.9,9.9 l -10.2,-2.3 c -0.5,-0.1 -0.9,0.2 -1,0.7 -0.1,0.5 0.2,0.9 0.7,1 l 10.4,2.3 c -0.2,2.6 -0.3,4.9 -0.3,6.6 l -11.1,0.9 z m 111.6,-41.7 c -0.2,-0.4 -0.2,-0.9 -0.1,-1.3 0.2,-0.4 0.5,-0.8 0.9,-1 0.4,-0.2 0.9,-0.2 1.3,-0.1 0.4,0.2 0.8,0.5 1,0.9 8,17.4 4,31.8 -11.3,40.8 -0.6,-1 -1.3,-2 -2,-2.8 13.8,-8.1 17.4,-20.9 10.2,-36.5 z m -44.4,45.6 0.7,-0.7 0.1,-0.9 c 0,-0.1 0.1,-0.6 0.1,-1.4 l 10.7,0.8 c 0,0 0,0 0.1,0 0.5,0 0.8,-0.3 0.9,-0.8 0,-0.5 -0.3,-0.9 -0.8,-0.9 l -10.8,-0.8 c 0,-1.7 0,-4 -0.1,-6.6 l 6.1,-1.4 8.7,0 c 10.5,0 19,8.5 19,19 l 0,29.4 -6,0 0,-6.8 c 0,-3.5 -2.9,-6.4 -6.4,-6.4 l -35,0 c -3.5,0 -6.4,2.9 -6.4,6.4 l 0,6.8 -6,0 0,-23.6 c 8.4,-0.7 15.7,-4.9 20.2,-8.1 l 13.5,5.4 c 0.1,0 0.2,0.1 0.3,0.1 0.3,0 0.7,-0.2 0.8,-0.5 0.2,-0.4 0,-1 -0.5,-1.1 l -12.6,-5 c 2.1,-1.6 3.3,-2.8 3.4,-2.9 z m 2.1,-41.6 c -0.6,6.5 -3.1,10.6 -5.2,12.9 -1.3,-2.9 -3,-5.7 -5.2,-8.1 -0.5,-0.6 -1,-1.1 -1.6,-1.6 2.4,-1.4 6.5,-3.1 12,-3.2 z m -29.8,2 c 6.5,0 11.7,2.1 15.5,6.3 5.3,5.8 7.1,14.6 7.7,21.3 l -9,2 c -0.5,0.1 -0.8,0.6 -0.7,1 0.1,0.4 0.5,0.7 0.8,0.7 0.1,0 0.1,0 0.2,0 l 8.7,-2 c 0.1,2 0.1,3.7 0.1,5.1 l -8.6,-0.6 c -0.5,0 -0.9,0.3 -0.9,0.8 0,0.5 0.3,0.9 0.8,0.9 l 8.7,0.6 c 0,0.1 0,0.2 0,0.3 -0.9,0.8 -2.5,2.1 -4.6,3.6 l -4.6,-1.8 c -0.4,-0.2 -1,0 -1.1,0.5 -0.2,0.4 0,1 0.5,1.1 l 3.4,1.4 c -4.4,2.7 -10.4,5.4 -16.9,5.4 -6.5,0 -12.5,-2.7 -16.9,-5.4 l 3.4,-1.4 c 0.4,-0.2 0.7,-0.7 0.5,-1.1 -0.2,-0.4 -0.7,-0.7 -1.1,-0.5 l -4.6,1.8 c -2.1,-1.4 -3.7,-2.8 -4.6,-3.5 0,-0.1 0,-0.2 0,-0.3 l 8.6,-0.6 c 0.5,0 0.8,-0.5 0.8,-0.9 0,-0.5 -0.5,-0.8 -0.9,-0.8 L 61,217 c 0,-1.3 0.1,-3.1 0.2,-5 l 8.5,1.9 c 0.1,0 0.1,0 0.2,0 0.4,0 0.8,-0.3 0.8,-0.7 0.1,-0.5 -0.2,-0.9 -0.7,-1 l -8.7,-2 c 0.7,-6.9 2.8,-15.9 8.2,-21.7 3.9,-4 8.7,-6 14.9,-6 z m -29.8,-2 c 5.7,0 9.9,1.9 12.3,3.4 -0.4,0.3 -0.7,0.7 -1.1,1.1 -2.4,2.6 -4.3,5.6 -5.7,8.9 -2.1,-2.3 -4.8,-6.5 -5.5,-13.4 z"
           inkscape:connector-curvature="0"
           style="fill:#414042" /><path
           id="XMLID_54_"
           class="st0"
           d="m 84.4,208.7 c -7.4,0 -6.2,5.4 0,8.7 6.2,-3.3 7.5,-8.7 0,-8.7 z"
           inkscape:connector-curvature="0"
           style="fill:#414042" /></g><g
         id="XMLID_4_"><path
           id="XMLID_64_"
           class="st0"
           d="m 953.7,217.8 c -7.4,0 -6.2,5.4 0,8.7 6.2,-3.4 7.4,-8.7 0,-8.7 z"
           inkscape:connector-curvature="0"
           style="fill:#414042" /><path
           id="XMLID_101_"
           class="st0"
           d="m 988.8,187.2 0,-2.4 -2.4,-0.2 c -9.8,-0.9 -16.4,2.8 -19.5,5 -3.8,-2.1 -8.2,-3.2 -13.3,-3.2 -5,0 -9.4,1.1 -13.1,3.3 -2.9,-2.2 -9.7,-6 -19.6,-5.1 l -2.4,0.2 0,2.4 c 0.2,12.1 5.9,18.6 8.9,21.1 -0.9,3.3 -1.6,6.9 -2,10.8 l -0.2,1.9 1.7,0.8 c 0.1,0.1 14.1,6.6 14.4,17.5 l 0.1,1.8 1.7,0.6 c 2.7,0.9 5.3,1.5 7.9,1.7 l 0,28.8 16.5,0 0,-12 c 0,-0.6 0.5,-1.1 1.1,-1.1 l 34.9,0 c 0.6,0 1.1,0.5 1.1,1.1 l 0,12 16.5,0 0,-34.6 c 0,-2.8 -0.5,-5.4 -1.3,-7.9 17.7,-10.3 22.9,-27.9 13.8,-47.7 -0.8,-1.7 -2.2,-3 -3.9,-3.6 -1.7,-0.6 -3.6,-0.6 -5.3,0.2 -3.5,1.6 -5,5.8 -3.4,9.3 6.3,13.6 3.1,23.9 -9.4,30.5 -4.1,-3.1 -9.2,-5 -14.7,-5 l -15.6,0 c -0.3,-1.8 -0.7,-3.6 -1.2,-5.3 3.2,-2.8 8.5,-9.2 8.7,-20.9 z m -64.9,2.4 c 5.7,0 9.8,1.9 12.2,3.3 -2.7,2.6 -5,5.9 -6.7,9.9 -2.1,-2.2 -4.9,-6.4 -5.5,-13.2 z m 22.6,47.6 c -1.4,-10.5 -11.5,-17 -15.6,-19.3 1.6,-12.4 6.9,-26.3 22.8,-26.3 16.4,0 21.6,13.7 23,25.8 -4.1,2.3 -14.3,9.2 -15.7,19.7 -2.5,0.7 -4.9,1 -7.3,1 -2.4,0.1 -4.8,-0.3 -7.2,-0.9 z m 79.3,-51.7 c -0.4,-0.9 0,-1.9 0.9,-2.3 0.4,-0.2 0.9,-0.2 1.3,-0.1 0.4,0.2 0.8,0.5 1,0.9 8,17.4 4,31.8 -11.3,40.8 -0.6,-1 -1.3,-1.9 -2,-2.8 13.7,-8 17.3,-20.9 10.1,-36.5 z m -44.8,53.7 2.1,-20.8 5.6,0 2.7,20.8 2.1,-20.8 3.3,0 c 0.8,0 1.5,0.1 2.3,0.1 l 2.7,20.6 2,-19.4 c 7,2.8 12,9.7 12,17.7 l 0,29.4 -6,0 0,-6.8 c 0,-3.5 -2.9,-6.4 -6.4,-6.4 l -34.9,0 c -3.5,0 -6.4,2.9 -6.4,6.4 l 0,6.8 -6,0 0,-23.6 c 2.6,-0.2 5.3,-0.8 7.9,-1.7 l 1.7,-0.6 0.1,-1.8 c 0.1,-3.6 1.7,-6.8 3.9,-9.4 l 1.2,9.5 1.3,-12.2 c 2.3,-2.2 4.8,-3.9 6.4,-4.8 l 2.4,17 z m -2.8,-36.7 c -1.7,-3.9 -4,-7.2 -6.8,-9.7 2.4,-1.4 6.5,-3.2 11.9,-3.2 -0.5,6.5 -3,10.6 -5.1,12.9 z"
           inkscape:connector-curvature="0"
           style="fill:#414042" /></g><g
         id="XMLID_2_"><path
           id="XMLID_68_"
           class="st0"
           d="m 387.4,205.9 c -5.6,0 -4.6,4 0,6.5 4.6,-2.5 5.5,-6.5 0,-6.5 z"
           inkscape:connector-curvature="0"
           style="fill:#414042" /><path
           id="XMLID_109_"
           class="st0"
           d="m 365.4,208.3 0,0.5 0.2,0.4 c 0.8,1.7 6.3,13.4 14.4,18.4 l 0,31.9 16.5,0 0,-12 c 0,-0.6 0.5,-1.1 1.1,-1.1 l 34.9,0 c 0.6,0 1.1,0.5 1.1,1.1 l 0,12 16.5,0 0,-34.6 c 0,-2.5 -0.4,-5 -1.1,-7.3 0.8,0.1 1.5,0.1 2.3,0.1 7,0 13.1,-2.6 16.9,-7.3 3.5,-4.4 8.1,-14.7 -1.2,-33.6 l -2.2,-4.4 -2.4,4.3 c -1.8,3.2 -5.4,5.3 -9.2,7.5 -6.6,3.8 -14.5,8.4 -14.4,20.3 -3.7,-2.4 -8.2,-3.7 -12.9,-3.7 l -16.6,0 c -0.2,-3.3 -0.9,-7.2 -2.2,-11 0,-2.8 -0.2,-16.3 -4.4,-31.2 l -1.9,-6.9 -3,6.6 c -3.2,7 -5.1,13.9 -5.9,17.6 -1.4,-0.3 -3,-0.4 -4.5,-0.4 -1.6,0 -3.1,0.2 -4.5,0.5 -0.9,-3.7 -2.7,-10.7 -5.9,-17.7 l -3,-6.6 -1.9,6.9 c -4.1,14.9 -4.1,28.4 -4,31.2 -3.4,8.5 -2.8,17.9 -2.7,18.5 z m 90.4,-19.6 c 2.9,-1.7 5.9,-3.4 8.3,-5.7 4.3,10.4 4.4,18.9 0.1,24.2 -3.6,4.5 -10.4,6.4 -17.7,4.9 -0.6,-0.9 -1.2,-1.7 -1.8,-2.5 -2.7,-13 3.7,-16.7 11.1,-20.9 z m -46.7,20.5 0.2,-0.4 0,-0.4 c 0,-0.2 0.1,-1.1 0.1,-2.5 l 16.4,0 c 10.5,0 19,8.5 19,19 l 0,29.4 -6,0 0,-6.8 c 0,-3.5 -2.9,-6.4 -6.4,-6.4 l -34.9,0 c -3.5,0 -6.4,2.9 -6.4,6.4 l 0,6.8 -6,0 0,-24.5 c 0.7,0.1 1.4,0.2 2.2,0.2 12.1,-0.1 20.8,-18.7 21.8,-20.8 z m -9.5,-41.3 c 0.9,4.7 1.5,9.1 1.8,12.6 -1.3,-1.3 -2.8,-2.3 -4.5,-3.2 0.4,-2 1.3,-5.4 2.7,-9.4 z m -24.5,0.1 c 1.4,4 2.2,7.5 2.7,9.5 -1.6,0.8 -3,1.9 -4.4,3.2 0.3,-3.5 0.8,-7.9 1.7,-12.7 z m 1.7,16.8 c 2.7,-2.9 6.2,-4.3 10.6,-4.3 4.7,0 8.4,1.5 11.1,4.5 6.3,7 5.8,19.9 5.7,22.4 -2.4,5.2 -9.6,17.3 -16.8,17.3 -7.2,0 -14.4,-12 -16.8,-17.2 -0.1,-2.6 -0.3,-15.8 6.2,-22.7 z"
           inkscape:connector-curvature="0"
           style="fill:#414042" /></g><g
         id="XMLID_10_"><path
           id="XMLID_87_"
           class="st0"
           d="m 92.5,426.8 c -5.8,0 -4.8,4.2 0,6.8 4.9,-2.6 5.8,-6.8 0,-6.8 z"
           inkscape:connector-curvature="0"
           style="fill:#414042" /><path
           id="XMLID_119_"
           class="st0"
           d="m 55.9,432.2 -0.8,1.2 0.6,1.3 c 3.3,7 11.5,12.8 19.5,18.4 5.4,3.8 10.8,7.6 13.3,11.1 l 0,21.4 16.5,0 0,-12 c 0,-0.6 0.5,-1.1 1.1,-1.1 l 34.9,0 c 0.6,0 1.1,0.5 1.1,1.1 l 0,12 16.5,0 0,-34.6 c 0,-2.8 -0.5,-5.4 -1.3,-7.9 17.7,-10.3 22.9,-27.9 13.8,-47.7 -0.8,-1.7 -2.2,-3 -3.9,-3.6 -1.7,-0.6 -3.6,-0.6 -5.3,0.2 -1.7,0.8 -3,2.2 -3.6,3.9 -0.6,1.7 -0.6,3.6 0.2,5.3 6.3,13.6 3.1,23.9 -9.4,30.5 -4.1,-3.1 -9.2,-5 -14.7,-5 l -8.4,0 c -1.9,-3.6 -4.4,-8.5 -6.5,-13.7 -0.2,-0.5 -0.4,-1 -0.6,-1.5 0.8,-2.3 1.4,-5.1 1.5,-8.5 l 0,-2.4 -2.4,-0.2 c -2.7,-0.2 -5.1,0 -7.1,0.4 -5.1,-4.2 -11.3,-6.4 -18.3,-6.4 -7,0 -13.3,2.2 -18.3,6.5 -2.1,-0.5 -4.6,-0.7 -7.3,-0.4 l -2.4,0.2 0,2.4 c 0,3.5 0.7,6.4 1.6,8.8 -0.2,0.4 -0.4,0.8 -0.5,1.2 -4.1,10 -9.7,19 -9.8,19.1 z M 163.3,399 c -0.2,-0.4 -0.2,-0.9 -0.1,-1.3 0.2,-0.4 0.5,-0.8 0.9,-1 0.4,-0.2 0.9,-0.2 1.3,-0.1 0.4,0.2 0.8,0.5 1,0.9 8,17.4 4,31.8 -11.3,40.8 -0.6,-1 -1.3,-1.9 -2,-2.8 13.8,-8 17.4,-20.9 10.2,-36.5 z m -34,33.2 c 0,0 -0.1,-0.1 -0.2,-0.3 l 5.4,0 c 10.5,0 19,8.5 19,19 l 0,29.4 -6,0 0,-6.8 c 0,-3.5 -2.9,-6.4 -6.4,-6.4 l -34.9,0 c -3.5,0 -6.4,2.9 -6.4,6.4 l 0,6.8 -6,0 0,-12.9 1.4,0 c 0.2,-4 7.6,-9.2 14.7,-14.3 7.9,-5.6 16.2,-11.4 19.5,-18.4 l 0.6,-1.3 -0.7,-1.2 z M 115,405.5 c -0.5,4 -1.9,6.7 -3.3,8.4 -1.2,-2.5 -2.7,-4.6 -4.4,-6.4 1.7,-0.9 4.3,-1.9 7.7,-2 z m -5.4,19.1 c -2.6,2.2 -8.2,7.8 -8.5,15.7 -2.9,1.2 -5.8,1.8 -8.5,1.8 -2.7,0 -5.5,-0.6 -8.5,-1.8 -0.4,-7.9 -5.8,-13.5 -8.4,-15.7 2.1,-11.7 7.7,-17.6 16.8,-17.6 9.4,0.1 15.2,6 17.1,17.6 z m -17,-25 c 4.5,0 8.7,1.1 12.3,3.3 -0.8,0.4 -1.6,0.9 -2.1,1.3 -3,-1.6 -6.4,-2.4 -10.3,-2.4 -3.8,0 -7.2,0.8 -10.2,2.5 -0.6,-0.4 -1.3,-0.9 -2.1,-1.3 3.6,-2.3 7.8,-3.4 12.4,-3.4 z m -14.7,8.1 c -1.7,1.8 -3.2,4 -4.4,6.6 -1.4,-1.7 -3,-4.5 -3.5,-8.7 3.5,0.1 6.2,1.1 7.9,2.1 z m -8.5,9.8 c 0.7,0.9 1.4,1.6 2,2.1 -0.5,1.8 -0.9,3.7 -1.2,5.7 l -0.2,1.6 1.3,0.9 c 0.1,0.1 7.9,5.8 7.5,14 l -0.1,1.7 1.6,0.8 c 4.1,2 8.2,3 12.2,3 4,0 8.1,-1 12.3,-3 l 1.6,-0.8 -0.1,-1.7 c -0.4,-8.1 7.4,-13.9 7.6,-14 l 1.3,-0.9 -0.2,-1.6 c -0.3,-2.1 -0.7,-4.1 -1.2,-5.9 0.6,-0.5 1.3,-1.2 1.9,-2.1 3.1,7.4 6.8,13.7 8.3,16.4 -3.2,5.3 -10.3,10.3 -17.1,15.2 -5.9,4.2 -11.3,7.9 -14.3,11.9 -3,-4 -8.4,-7.8 -14.3,-11.9 -6.9,-4.9 -14,-9.9 -17.1,-15.2 1.5,-2.6 5.1,-8.9 8.2,-16.2 z"
           inkscape:connector-curvature="0"
           style="fill:#414042" /></g><g
         id="XMLID_6_"><path
           id="XMLID_106_"
           class="st0"
           d="m 1355.9,454.1 -26.7,-10.6 -3.4,-9.9 -8.1,5.4 -6,-2.4 -3.2,-9.4 -7.7,5.1 -4.5,-1.8 c -0.4,-0.1 -0.8,-0.3 -1.1,-0.4 l -3,-8.8 -7.9,5.3 c -9.4,-2.5 -19.1,-3.8 -28.9,-3.8 -14.4,0 -28.4,2.7 -41.8,8.1 l -21.9,8.9 c -2.8,1.1 -4.6,3.9 -4.6,6.9 0,4.1 3.3,7.4 7.4,7.4 l 161.4,0 z m -163.6,-7.4 c 0,-0.9 0.5,-1.7 1.4,-2.1 l 21.9,-8.9 c 12.7,-5.2 26.1,-7.8 39.8,-7.8 13.4,0 26.5,2.5 39,7.4 l 34,13.5 -71.1,0 c 1.1,-3.3 4.2,-5.7 7.9,-5.7 l 0,-5.1 c -6.6,0 -12.1,4.7 -13.3,10.9 l -26.7,0 c 1.1,-3.3 4.2,-5.7 7.9,-5.7 l 0,-5.2 c -6.6,0 -12.1,4.7 -13.3,10.9 l -25.4,0 c -1.1,0 -2.1,-1 -2.1,-2.2 z"
           inkscape:connector-curvature="0"
           style="fill:#414042" /></g><g
         id="XMLID_11_"><path
           id="XMLID_128_"
           class="st0"
           d="m 121.1,618 c -0.7,0.2 -16,5.6 -20.7,20.6 -19.2,1.9 -36.5,8.9 -47.5,19.5 l -1.9,1.9 1.9,1.9 c 12.9,12.5 34.6,20 58,20 8.2,0 16.3,-0.9 23.8,-2.7 5.6,6.7 14.5,6.9 14.9,6.9 l 3.8,0.1 -4.3,-11.7 c 4.1,-1.8 8,-3.8 11.5,-6.1 3.1,4 8.8,6.9 15.4,7.9 l 6.7,1 -4.3,-5.3 c -2.9,-3.5 -4.3,-7.3 -4.3,-11.2 0,-3.9 1.5,-7.6 4.3,-11.1 l 4.3,-5.3 -6.7,1 c -5.9,0.9 -11.1,3.4 -14.4,6.7 -2.9,-2 -6,-3.8 -9.3,-5.3 l 6.3,-13.6 -3.8,-0.2 c -0.5,0 -12.1,-0.7 -19.4,7.9 -3.8,-0.9 -7.7,-1.6 -11.7,-2.1 l 0.9,-22.1 -3.5,1.3 z m -1.9,6.6 -0.6,13.7 c -2.5,-0.2 -5.1,-0.3 -7.7,-0.3 -1.6,0 -3.2,0 -4.8,0.1 3,-7.1 9.1,-11.4 13.1,-13.5 z m 21.4,52.9 c 1.3,-0.4 2.5,-0.8 3.7,-1.2 l 1.4,3.8 c -1.6,-0.5 -3.4,-1.3 -5.1,-2.6 z m 9.9,-39 -2.9,6.2 c -2.1,-0.8 -4.2,-1.6 -6.3,-2.2 3,-2.5 6.5,-3.5 9.2,-4 z m 10.1,19.3 2.2,1.7 1.5,-2.3 c 1.3,-2 3.6,-3.7 6.4,-4.9 -1.2,2.8 -1.8,5.6 -1.8,8.5 0,2.9 0.6,5.8 1.8,8.5 -3.3,-1.4 -5.9,-3.5 -7,-5.9 l -1.3,-2.9 -2.6,1.9 c -12.3,8.9 -30.2,14.1 -49,14.1 -20.8,0 -40.1,-6.2 -52.3,-16.7 12.2,-10.5 31.4,-16.7 52.3,-16.7 19.4,0.1 37.5,5.4 49.8,14.7 z"
           inkscape:connector-curvature="0"
           style="fill:#414042" /><circle
           id="XMLID_88_"
           class="st0"
           cx="77.199997"
           cy="655.59998"
           r="2.5999999"
           style="fill:#414042" /></g><g
         id="XMLID_12_"><path
           id="XMLID_132_"
           class="st0"
           d="m 401,694.7 2.8,-8.2 c 7.7,2.5 17,3.7 28.1,3.7 5.2,0 10.8,-0.3 16.9,-0.8 l 5.4,-0.5 -57,-59.7 c -2.8,-3 -4.9,-6.8 -6.1,-11.2 l 0,-0.1 c -1.6,-5.8 -6.7,-10.1 -12.7,-10.5 -4,-0.3 -7.9,1 -10.9,3.8 -2.7,2.5 -4.4,6.1 -4.6,9.8 l -12,8.8 15.4,1.2 c 0.8,0.9 1.7,1.7 2.7,2.4 1.9,1.3 3,3.3 3.1,5.5 0.9,17.7 5.9,30.3 15.5,38.7 1,0.9 2.1,1.7 3.2,2.5 l -4.5,12.8 4.9,1.7 4.2,-11.8 c 1.2,0.6 2.4,1.2 3.7,1.7 l -3.1,8.5 5,1.7 z m -10.1,-21 c -8.5,-7.4 -13,-18.8 -13.7,-35 -0.2,-3.8 -2.1,-7.3 -5.3,-9.5 -2.4,-1.7 -3.9,-4.5 -3.9,-7.5 0,-2.6 1,-4.9 2.9,-6.7 1.7,-1.6 3.9,-2.4 6.2,-2.4 0.2,0 0.5,0 0.7,0 3.8,0.3 7.1,3 8.1,6.8 l 0,0 c 1.4,5.2 3.9,9.8 7.3,13.4 l 49.5,51.8 c -24.9,1.6 -41.5,-1.9 -51.8,-10.9 z"
           inkscape:connector-curvature="0"
           style="fill:#414042" /></g><g
         id="XMLID_13_"><path
           id="XMLID_135_"
           class="st0"
           d="m 682.9,645.6 c 0,-6 -6,-10.7 -13.6,-10.7 -7.6,0 -13.6,4.7 -13.6,10.7 0,6 6,10.7 13.6,10.7 7.6,0 13.6,-4.7 13.6,-10.7 z m -22,0 c 0,-2.9 3.8,-5.4 8.4,-5.4 4.6,0 8.4,2.5 8.4,5.4 0,2.9 -3.8,5.4 -8.4,5.4 -4.6,0 -8.4,-2.5 -8.4,-5.4 z"
           inkscape:connector-curvature="0"
           style="fill:#414042" /><circle
           id="XMLID_89_"
           class="st0"
           cx="665.79999"
           cy="645.59998"
           r="1.6"
           style="fill:#414042" /><circle
           id="XMLID_114_"
           class="st0"
           cx="672.79999"
           cy="645.59998"
           r="1.6"
           style="fill:#414042" /><path
           id="XMLID_144_"
           class="st0"
           d="m 700.4,614 0,-2.4 -2.4,-0.2 c -6.1,-0.5 -10.2,1.8 -12.1,3.2 -4.5,-3.6 -10.1,-5.5 -16.7,-5.5 -6.5,0 -12,1.9 -16.4,5.6 -1.8,-1.4 -6,-3.9 -12.3,-3.3 l -2.4,0.2 0,2.4 c 0.1,8.2 4.4,12.2 6.1,13.5 -1.3,3.5 -2.3,7.4 -2.9,11.8 -1.3,9.4 3.5,18.5 11.9,22.7 4.5,2.3 9,3.6 13.4,3.9 l 0,28.8 16.5,0 0,-12 c 0,-0.6 0.5,-1.1 1.1,-1.1 l 34.9,0 c 0.6,0 1.1,0.5 1.1,1.1 l 0,12 16.5,0 0,-34.6 c 0,-5.2 -1.7,-10.1 -4.5,-14.1 1.2,-0.5 2.3,-1 3.4,-1.8 1.2,-0.9 2.1,-2 2.7,-3.2 0.9,-0.4 1.6,-1.1 2.2,-1.9 1.4,-1.9 2,-4.6 1.5,-6.9 -0.7,-3 -3.2,-5.4 -6.1,-6.1 -0.7,-0.1 -1.4,0.3 -1.6,1 -0.2,0.7 0.3,1.4 1,1.6 2,0.4 3.7,2.1 4.1,4.1 0.3,1.3 0.1,2.8 -0.6,4.1 -0.6,-2.3 -2.8,-4.6 -5,-4.9 -1.6,-0.2 -2.9,0.4 -3.6,1.7 -0.9,1.6 -0.7,4.1 0.5,5.6 1,1.2 2.4,2.1 3.9,2.3 -0.2,0.2 -0.4,0.3 -0.6,0.5 -1,0.8 -2.3,1.3 -3.5,1.8 -4.4,-4.9 -10.9,-8 -18,-8 l -15.6,0 c -0.5,-3.1 -1.3,-6 -2.3,-8.6 1.8,-1.5 5.7,-5.5 5.8,-13.3 z m 32.4,23.8 c -0.6,-0.7 -0.7,-2 -0.3,-2.7 0.1,-0.2 0.3,-0.4 0.8,-0.4 0.1,0 0.2,0 0.2,0 1.3,0.2 2.8,2 2.9,3.4 0,0.3 0,0.7 -0.1,1 -0.2,0 -0.4,0.1 -0.5,0.1 -1.2,0 -2.3,-0.5 -3,-1.4 z m -89.3,-21.2 c 2.6,0.2 4.5,1.2 5.6,1.9 -1,1.2 -1.9,2.6 -2.7,4.1 -1,-1 -2.3,-2.9 -2.9,-6 z m 12,40.7 c -6.4,-3.2 -10.1,-10.1 -9.1,-17.3 1.6,-11.7 6.9,-25.8 22.7,-25.8 16.6,0 21.7,14.1 23,25.9 0.8,7 -2.9,13.8 -9.2,17 -4.8,2.4 -9.4,3.6 -13.9,3.6 -4.2,0.1 -8.8,-1 -13.5,-3.4 z m 42,-16.2 15,0 c 10.5,0 19,8.5 19,19 l 0,29.4 -6,0 0,-6.8 c 0,-3.5 -2.9,-6.4 -6.4,-6.4 l -34.9,0 c -3.5,0 -6.4,2.8 -6.4,6.4 l 0,6.8 -6,0 0,-23.6 c 4.4,-0.4 9,-1.8 13.6,-4.1 7.8,-3.9 12.5,-12.1 12.1,-20.7 z m -5.2,-18.8 c -0.8,-1.4 -1.7,-2.8 -2.7,-4 1.1,-0.7 2.9,-1.5 5.3,-1.7 -0.5,2.8 -1.7,4.6 -2.6,5.7 z"
           inkscape:connector-curvature="0"
           style="fill:#414042" /></g><g
         id="XMLID_14_"><path
           id="XMLID_149_"
           class="st0"
           d="m 930.4,685.6 0,1.4 c 0,6.1 5,11 11,11 l 73.8,0 c 6.1,0 11,-5 11,-11 l 0,-1.4 c 0,-6.1 -5,-11 -11,-11 l -1.3,0 c 1.1,-1.7 1.7,-3.7 1.7,-5.9 l 0,-1.4 c 0,-6.1 -5,-11 -11,-11 l -5.7,0 c 4.2,-11.4 7.1,-25.9 1,-36.9 -3.1,-5.6 -9.6,-12.3 -23.3,-13.5 l 0,-0.1 -2.6,0 c -10,-0.1 -17.9,2.3 -22.4,6.7 -2.2,2.2 -3.5,4.9 -3.5,7.5 -3.9,2.1 -6.5,6.2 -6.8,6.7 l 4.5,2.7 c 0.6,-1 2.7,-3.8 5.1,-5 3.6,2.1 10,2.3 16,2.4 2,0.1 3.9,0.1 5.3,0.2 0.5,0.1 0.9,0.1 1.3,0.2 0.2,0 0.5,0.1 0.7,0 2.6,0.2 5.9,0.7 6.9,2.5 2.2,4 -0.2,15.2 -5.6,26.5 l -23.5,0 c -6.1,0 -11,5 -11,11 l 0,1.4 c 0,2.2 0.6,4.2 1.7,5.9 l -1.3,0 c -6.1,0.1 -11,5 -11,11.1 z m 55.3,-58.3 c -1.8,-3.2 -5.5,-4.9 -11.3,-5.2 l -0.1,0 -0.1,0 -0.3,0 c -0.2,0 -0.5,0 -0.8,-0.1 l -0.3,0 c -1.6,-0.1 -3.6,-0.2 -5.7,-0.3 -3.7,-0.1 -12.2,-0.3 -13.6,-1.8 0.1,-1.2 0.7,-2.5 1.9,-3.6 3.2,-3.2 9.5,-5.1 17.3,-5.2 l 1.6,0 c 12.7,0.5 18.5,6.2 21.1,10.9 5.4,9.8 2.1,23.8 -2.1,34.3 l -12,0 c 3.2,-7 8.6,-21.5 4.4,-29 z m -39.4,40 c 0,-3.2 2.6,-5.8 5.8,-5.8 l 20.9,0 23.9,0 7.7,0 c 3.2,0 5.8,2.6 5.8,5.8 l 0,1.4 c 0,3.2 -2.6,5.8 -5.8,5.8 l -52.5,0 c -3.2,0 -5.8,-2.6 -5.8,-5.8 l 0,-1.4 z m 69,12.5 c 3.2,0 5.8,2.6 5.8,5.8 l 0,1.4 c 0,3.2 -2.6,5.8 -5.8,5.8 l -73.8,0 c -3.2,0 -5.8,-2.6 -5.8,-5.8 l 0,-1.4 c 0,-3.2 2.6,-5.8 5.8,-5.8 l 73.8,0 z"
           inkscape:connector-curvature="0"
           style="fill:#414042" /></g><g
         id="XMLID_15_"><path
           id="XMLID_155_"
           class="st0"
           d="m 1248,597.5 -4.9,-8.3 0,37.5 c 0,0 -0.1,0 -0.1,0 -7.8,0.4 -23.3,9.6 -25.2,18.3 -0.5,2.3 -0.1,4.4 1.1,6.1 2.8,4 9.4,5.4 15.8,6.2 l 0,35.4 c -5.4,1.7 -7.1,8.3 -7.2,12.1 l -0.1,2.7 57,0 0,-0.1 c 9.6,-0.4 16.6,-3.3 21.6,-8.7 10.5,-11.6 8.6,-32 6.8,-51.9 -1.4,-15 -2.7,-29.2 1.3,-38.1 l 1.9,-4.2 -4.5,0.5 c -10.7,1.1 -19.3,5.9 -25.4,14.1 -9.2,12.4 -11.2,30.5 -11,44.7 -7.3,-15.2 -16.7,-23.9 -19.5,-26.2 -0.4,-1.9 -1.1,-3.7 -2.1,-5.3 4.8,-4.4 6.5,-14.2 -5.5,-34.8 z m 0.3,12 c 4.7,10.5 4.8,17.6 0.2,20.3 l -0.2,0.1 0,-20.4 z m -25.2,38.7 c -0.3,-0.4 -0.5,-0.9 -0.3,-2 1.3,-5.8 14,-13.9 20.4,-14.3 0.1,0 0.2,0 0.3,0 0.5,0 1,0.1 1.5,0.2 l 1.6,0.4 1.3,1.3 c 2.4,2.5 3.4,6.9 2.6,10.7 -1.3,5.7 -6.2,8.7 -12.9,8 -3.7,-0.4 -12.4,-1.4 -14.5,-4.3 z m 67.2,-25.8 c 4.4,-5.9 10.3,-9.7 17.5,-11.4 -2.7,9.8 -1.5,22.8 -0.2,36.4 1.7,18.7 3.5,38 -5.4,47.9 -4,4.3 -9.8,6.6 -17.8,7 -0.2,-6.2 -1,-12 -2.1,-17.3 -0.9,-4.3 -6.9,-42.5 8,-62.6 z m -34.6,23.3 c 0,-0.2 0.1,-0.3 0.1,-0.5 7.4,7.7 22.2,26.7 23.3,57.2 l -46,0 c 0.5,-2.1 1.7,-4.7 4.2,-4.7 l 2.7,0 -0.1,-2.7 c -0.1,-3.2 0.7,-5.7 2.6,-7.7 4.2,-4.4 11.9,-4.7 12,-4.7 l -0.1,-5.2 c -0.4,0 -8.8,0.3 -14.5,5.2 l 0,-24.7 c 8,-0.2 14.1,-4.7 15.8,-12.2 z"
           inkscape:connector-curvature="0"
           style="fill:#414042" /></g><g
         id="XMLID_16_"><path
           id="XMLID_152_"
           class="st0"
           d="m 152.6,819 -5,-0.7 c -3.7,-0.5 -7.4,-0.8 -11,-0.8 -34.5,0 -62.5,21.5 -62.5,47.8 0,26.4 28,47.8 62.5,47.8 3.6,0 7.3,-0.3 11,-0.8 l 5,-0.7 -3.5,-3.7 c -8,-8.5 -13.5,-18.3 -16.1,-28.5 4.7,3.5 11,5.5 17.6,5.5 1.5,0 2.9,-0.1 4.4,-0.3 l 5,-0.7 -3.5,-3.7 c -4.2,-4.5 -6.4,-9.7 -6.4,-15.1 0,-5.4 2.2,-10.6 6.4,-15.1 l 3.5,-3.7 -5,-0.7 c -1.5,-0.2 -2.9,-0.3 -4.4,-0.3 -6.7,0 -12.9,2 -17.6,5.5 2.6,-10.2 8.2,-20 16.1,-28.5 l 3.5,-3.3 z m -25.5,34.5 c -0.3,1.6 0.5,3.2 2,4 1.8,1 4,0.7 5.3,-0.7 3.6,-3.5 9.1,-5.7 15,-5.9 -3,4.5 -4.5,9.4 -4.5,14.5 0,5.1 1.5,10.1 4.5,14.5 -5.9,-0.3 -11.5,-2.4 -15,-5.9 -1.4,-1.4 -3.6,-1.6 -5.3,-0.7 -1.5,0.8 -2.3,2.4 -2,4 2.1,10.8 7.2,21.2 14.8,30.5 -1.8,0.1 -3.6,0.2 -5.4,0.2 -31.6,0 -57.3,-19.1 -57.3,-42.6 0,-23.5 25.7,-42.6 57.3,-42.6 1.8,0 3.6,0.1 5.4,0.2 -7.6,9.2 -12.7,19.7 -14.8,30.5 z"
           inkscape:connector-curvature="0"
           style="fill:#414042" /><circle
           id="XMLID_136_"
           class="st0"
           cx="90.599998"
           cy="858.70001"
           r="4.5999999"
           style="fill:#414042" /></g><g
         id="XMLID_17_"><path
           id="XMLID_164_"
           class="st0"
           d="m 360.9,874 c 0,23.3 19,42.3 42.3,42.3 23.3,0 42.3,-19 42.3,-42.3 0,-18.3 -11.7,-33.9 -28,-39.8 -0.3,-3.5 -1.8,-6.6 -4.1,-8.9 l 4.1,-6.8 -4.5,-2.7 -3.9,6.5 c -1.9,-0.9 -3.9,-1.4 -6.1,-1.4 -2.1,0 -4.2,0.5 -6,1.3 l -3.9,-6.4 -4.5,2.7 4,6.7 c -2.3,2.4 -3.9,5.5 -4.2,9 -15.9,5.9 -27.5,21.5 -27.5,39.8 z m 79.4,0 c 0,19.6 -15.3,35.7 -34.5,37 l 0,-74 c 19.3,1.3 34.5,17.4 34.5,37 z m -37.1,-47.9 c 4.1,0 7.6,2.7 8.8,6.5 -2.8,-0.6 -5.8,-0.9 -8.8,-0.9 -3.1,0 -6,0.3 -8.9,1 1.2,-3.9 4.7,-6.6 8.9,-6.6 z m -2.6,10.9 0,74 c -19.2,-1.3 -34.5,-17.4 -34.5,-37 0,-19.6 15.3,-35.7 34.5,-37 z"
           inkscape:connector-curvature="0"
           style="fill:#414042" /><circle
           id="XMLID_137_"
           class="st0"
           cx="389.5"
           cy="853.09998"
           r="4.3000002"
           style="fill:#414042" /><circle
           id="XMLID_159_"
           class="st0"
           cx="375.29999"
           cy="868.5"
           r="4.3000002"
           style="fill:#414042" /><circle
           id="XMLID_160_"
           class="st0"
           cx="391.10001"
           cy="877.09998"
           r="4.3000002"
           style="fill:#414042" /><circle
           id="XMLID_161_"
           class="st0"
           cx="382.5"
           cy="894.5"
           r="4.3000002"
           style="fill:#414042" /><circle
           id="XMLID_167_"
           class="st0"
           cx="416.89999"
           cy="853.09998"
           r="4.3000002"
           style="fill:#414042" /><circle
           id="XMLID_168_"
           class="st0"
           cx="431.20001"
           cy="868.5"
           r="4.3000002"
           style="fill:#414042" /><circle
           id="XMLID_169_"
           class="st0"
           cx="415.39999"
           cy="877.09998"
           r="4.3000002"
           style="fill:#414042" /><circle
           id="XMLID_170_"
           class="st0"
           cx="424"
           cy="894.5"
           r="4.3000002"
           style="fill:#414042" /></g><g
         id="XMLID_18_"><path
           id="XMLID_175_"
           class="st0"
           d="m 685.6,846.6 c 0,-6.4 -5.2,-11.7 -11.7,-11.7 -6.4,0 -11.7,5.2 -11.7,11.7 0,6.4 5.2,11.7 11.7,11.7 6.4,0 11.7,-5.3 11.7,-11.7 z m -18.2,0 c 0,-3.6 2.9,-6.4 6.4,-6.4 3.6,0 6.4,2.9 6.4,6.4 0,3.6 -2.9,6.4 -6.4,6.4 -3.5,0.1 -6.4,-2.8 -6.4,-6.4 z"
           inkscape:connector-curvature="0"
           style="fill:#414042" /><path
           id="XMLID_178_"
           class="st0"
           d="m 719.4,846.6 c 0,-6.4 -5.2,-11.7 -11.7,-11.7 -6.4,0 -11.7,5.2 -11.7,11.7 0,6.4 5.2,11.7 11.7,11.7 6.4,0 11.7,-5.3 11.7,-11.7 z m -18.2,0 c 0,-3.6 2.9,-6.4 6.4,-6.4 3.6,0 6.4,2.9 6.4,6.4 0,3.6 -2.9,6.4 -6.4,6.4 -3.5,0.1 -6.4,-2.8 -6.4,-6.4 z"
           inkscape:connector-curvature="0"
           style="fill:#414042" /><path
           id="XMLID_184_"
           class="st0"
           d="m 734.9,817.1 -5.2,-0.1 c -0.2,9.4 -8.8,10.1 -22,10.1 -7.2,0 -13.5,3.9 -16.9,9.8 -3.4,-5.8 -9.7,-9.8 -16.9,-9.8 -13.2,0 -21.9,-0.7 -22,-10.1 l -5.2,0.1 c 0.2,9.9 6.9,13.4 14.7,14.6 -4.3,3.6 -7,8.9 -7,14.9 0,6.3 3,12 7.7,15.5 -1.9,6 -2.9,12.6 -2.9,19.3 0,30.3 19.8,34.8 31.6,34.8 11.8,0 31.6,-4.5 31.6,-34.8 0,-6.7 -1,-13.3 -2.9,-19.3 4.7,-3.6 7.7,-9.2 7.7,-15.5 0,-6 -2.7,-11.3 -7,-14.9 7.8,-1.2 14.6,-4.7 14.7,-14.6 z m -40.2,50 c 0,3.5 -1.4,6.9 -3.9,9.4 -2.5,-2.5 -3.9,-5.8 -3.9,-9.4 0,-3.5 1.4,-6.9 3.9,-9.4 2.5,2.5 3.9,5.9 3.9,9.4 z m -35.1,-20.5 c 0,-7.9 6.4,-14.3 14.3,-14.3 7.9,0 14.3,6.4 14.3,14.3 0,7.9 -6.4,14.3 -14.3,14.3 -7.9,0 -14.3,-6.4 -14.3,-14.3 z m 31.2,64.5 c -17.5,0 -26.4,-10 -26.4,-29.6 0,-5.8 0.8,-11.5 2.4,-16.7 2.2,0.9 4.6,1.4 7.1,1.4 2.8,0 5.5,-0.6 7.9,-1.7 -0.1,0.9 -0.2,1.8 -0.2,2.7 0,5.9 2.9,11.5 7.6,14.9 l 1.5,1.1 1.5,-1.1 c 4.8,-3.5 7.6,-9 7.6,-14.9 0,-0.9 -0.1,-1.8 -0.2,-2.7 2.4,1.1 5.1,1.7 7.9,1.7 2.5,0 4.9,-0.5 7.1,-1.3 1.5,5.2 2.4,10.9 2.4,16.7 0.2,19.5 -8.7,29.5 -26.2,29.5 z M 722,846.6 c 0,7.9 -6.4,14.3 -14.3,14.3 -7.9,0 -14.3,-6.4 -14.3,-14.3 0,-7.9 6.4,-14.3 14.3,-14.3 7.9,0 14.3,6.4 14.3,14.3 z"
           inkscape:connector-curvature="0"
           style="fill:#414042" /></g><g
         id="XMLID_19_"><path
           id="XMLID_188_"
           class="st0"
           d="m 944.5,814.7 c -5.5,0 -9.9,4.4 -9.9,9.9 l 0,0.4 -14.9,3.5 14.9,4.8 0,26.1 c 0,17.9 12.3,33 28.9,37.3 l 0,16.7 5.2,0 0,-15.7 c 1.4,0.2 2.9,0.2 4.3,0.2 0.7,0 1.3,0 2,-0.1 l 0,15.5 5.2,0 0,-16.2 c 17.4,-3.3 30.8,-18.4 31.3,-36.7 4.6,-4.8 19.8,-21.3 18.3,-30.5 -0.4,-2.3 -1.7,-4.2 -3.9,-5.3 -2.5,-1.2 -5,-1.2 -7.3,0 -8,4.4 -11.1,24.2 -12,32 l -52.2,0 0,-32.2 c 0,-5.2 -4.5,-9.7 -9.9,-9.7 z m 76.6,14.7 c 0.3,-0.2 0.6,-0.3 1.1,-0.3 0.4,0 0.8,0.1 1.4,0.4 0.8,0.4 1,0.9 1.1,1.4 0.7,4.1 -5.6,13.1 -12,20.7 1.6,-9.7 4.6,-20.1 8.4,-22.2 z m -22.4,32.7 c -5.9,10.2 -16.8,16.6 -28.7,16.6 l 0,5.2 c 14.9,0 28.3,-8.5 34.7,-21.8 l 1.6,0 c -1.3,17.1 -15.7,30.6 -33.2,30.6 -18.3,0 -33.3,-14.9 -33.3,-33.3 l 0,-34.8 c 0,-2.6 2.1,-4.7 4.7,-4.7 2.6,0 4.7,2.1 4.7,4.7 l 0,37.5 49.5,0 z"
           inkscape:connector-curvature="0"
           style="fill:#414042" /></g><g
         id="XMLID_20_"><path
           id="XMLID_194_"
           class="st0"
           d="m 1276.4,823.7 c -2.1,0 -4.1,0.3 -6,0.9 -5.5,-5.1 -12.7,-7.7 -20.3,-7.3 -6.5,0.4 -12.5,3.2 -17,7.4 -2.1,-0.7 -4.3,-1.1 -6.6,-1.1 -11.7,0 -21.2,9.5 -21.2,21.2 0,11.7 9.5,21.2 21.2,21.2 2.5,0 4.9,-0.4 7.2,-1.3 2.4,2.1 5.2,3.9 8.3,5.1 l 0,0.2 c 0,4.1 -3.3,7.5 -7.5,7.5 l -7.2,0 c -4.7,0 -8.6,3.7 -8.8,8.3 -0.1,2.3 0.8,4.5 2.4,6.2 1.6,1.7 3.8,2.6 6.1,2.6 l 7.4,0 c 4.9,0 9.5,-1.5 13.4,-4 l 0,22.9 17.9,0 0,-13.2 c 0,-0.9 0.7,-1.6 1.6,-1.6 l 39.4,0 c 0.9,0 1.6,0.7 1.6,1.6 l 0,13.2 17.9,0 0,-38.7 c 0,-14.9 -12.1,-27 -27,-27 l -2,0 c 0.1,-1 0.2,-1.9 0.2,-2.9 0.3,-11.7 -9.3,-21.2 -21,-21.2 z m 0,5.2 c 8.8,0 16,7.2 16,16 0,8.8 -7.2,16 -16,16 -0.9,0 -1.8,-0.1 -2.7,-0.2 3.4,-4.6 5.3,-10.2 5.3,-16.1 0,-5.5 -1.7,-10.9 -4.8,-15.4 0.8,-0.2 1.5,-0.3 2.2,-0.3 z m -49.8,32 c -8.8,0 -16,-7.2 -16,-16 0,-8.8 7.2,-16 16,-16 0.9,0 1.9,0.1 2.8,0.2 -2.6,3.8 -4.3,8.2 -4.7,13 -0.6,6.7 1.4,13.2 5.2,18.4 -1.1,0.2 -2.2,0.4 -3.3,0.4 z m 8.1,28.5 -7.4,0 c -0.9,0 -1.7,-0.4 -2.4,-1 -0.6,-0.6 -1,-1.5 -0.9,-2.4 0.1,-1.8 1.6,-3.2 3.5,-3.2 l 7.2,0 c 7,0 12.7,-5.7 12.7,-12.7 l 0,-0.7 c 0,-1.9 -1.2,-3.6 -2.9,-4.2 -9.4,-3.4 -15.3,-12.6 -14.5,-22.6 0.9,-10.8 9.7,-19.4 20.5,-20.1 6.2,-0.4 12,1.7 16.5,5.9 4.5,4.2 6.9,9.9 6.9,16 0,10.1 -6.8,18.8 -16.6,21.3 -2,0.5 -3.3,2.3 -3.3,4.3 -0.1,10.7 -8.7,19.4 -19.3,19.4 z m 64.8,-36.4 c 12,0 21.8,9.8 21.8,21.8 l 0,33.5 -7.5,0 0,-8 c 0,-3.8 -3.1,-6.8 -6.8,-6.8 l -39.4,0 c -3.8,0 -6.8,3.1 -6.8,6.8 l 0,8 -7.5,0 0,-22.3 c 3.6,-4.1 5.8,-9.5 5.9,-15.3 4,-1.1 7.6,-3.1 10.6,-5.7 2.2,0.7 4.4,1.1 6.7,1.1 8.8,0 16.4,-5.4 19.6,-13.1 l 3.4,0 z"
           inkscape:connector-curvature="0"
           style="fill:#414042" /></g></g><g
       id="XMLID_23_"><path
         id="XMLID_191_"
         class="st0"
         d="m 571.9,86.4 1.1,5.6 3.1,0 -5.4,-28 -4.5,0 -5.4,28 2.9,0 1.1,-5.6 7.1,0 z m -3.6,-18.9 3.2,16.2 -6.2,0 3,-16.2 z"
         inkscape:connector-curvature="0"
         style="fill:#414042" /><polygon
         id="XMLID_51_"
         class="st0"
         points="598.9,92 602.1,92 602.1,64 599.4,64 599.4,84.2 592.9,64 588.9,64 588.9,92 591.7,92 591.7,69.3 "
         style="fill:#414042" /><rect
         id="XMLID_28_"
         x="615.79999"
         y="64"
         class="st0"
         width="3.0999999"
         height="28"
         style="fill:#414042" /><polygon
         id="XMLID_29_"
         class="st0"
         points="632.5,92 635.2,92 635.2,69.7 639.8,92 642.8,92 647.3,69.5 647.3,92 650.3,92 650.3,64 645.9,64 641.4,86.4 636.8,64 632.5,64 "
         style="fill:#414042" /><path
         id="XMLID_50_"
         class="st0"
         d="m 674.1,86.4 1.1,5.6 3.1,0 -5.3,-28 -4.5,0 -5.4,28 2.9,0 1.1,-5.6 7,0 z m -3.6,-18.9 3.2,16.2 -6.2,0 3,-16.2 z"
         inkscape:connector-curvature="0"
         style="fill:#414042" /><polygon
         id="XMLID_30_"
         class="st0"
         points="691.2,64 691.2,92 702.4,92 702.4,89.2 694.3,89.2 694.3,64 "
         style="fill:#414042" /><rect
         id="XMLID_33_"
         x="731.79999"
         y="64"
         class="st0"
         width="3.0999999"
         height="28"
         style="fill:#414042" /><path
         id="XMLID_34_"
         class="st0"
         d="m 760.9,73.3 0,-2.5 c 0,-4.2 -2,-7.1 -6.3,-7.1 -4.3,0 -6.3,2.8 -6.3,7.1 l 0,14.5 c 0,4.2 2,7.1 6.3,7.1 4.3,0 6.3,-2.8 6.3,-7.1 l 0,-3.5 -3,0 0,3.6 c 0,2.5 -1,4 -3.3,4 -2.2,0 -3.3,-1.5 -3.3,-4 l 0,-14.8 c 0,-2.5 1,-4 3.3,-4 2.3,0 3.3,1.5 3.3,4 l 0,2.7 3,0 z"
         inkscape:connector-curvature="0"
         style="fill:#414042" /><path
         id="XMLID_38_"
         class="st0"
         d="m 786.8,85.2 0,-14.5 c 0,-4.3 -2.1,-7.1 -6.5,-7.1 -4.3,0 -6.4,2.8 -6.4,7.1 l 0,14.5 c 0,4.2 2.1,7.1 6.4,7.1 4.4,0 6.5,-2.8 6.5,-7.1 z m -9.8,0.2 0,-14.8 c 0,-2.5 1.1,-4 3.3,-4 2.3,0 3.3,1.5 3.3,4 l 0,14.8 c 0,2.6 -1,4 -3.3,4 -2.2,0 -3.3,-1.4 -3.3,-4 z"
         inkscape:connector-curvature="0"
         style="fill:#414042" /><polygon
         id="XMLID_35_"
         class="st0"
         points="810.1,92 813.4,92 813.4,64 810.6,64 810.6,84.2 804.1,64 800.2,64 800.2,92 803,92 803,69.3 "
         style="fill:#414042" /><path
         id="XMLID_39_"
         class="st0"
         d="m 826.6,83.7 0,1.6 c 0,4.2 2,7 6.3,7 4.3,0 6.3,-2.8 6.3,-7 0,-7.9 -9.4,-8.5 -9.4,-14.8 0,-2.5 1,-4 3.2,-4 2.2,0 3.2,1.5 3.2,4 l 0,0.9 3,0 0,-0.8 c 0,-4.2 -2,-7 -6.2,-7 -4.2,0 -6.2,2.7 -6.2,7 0,7.9 9.4,8.5 9.4,14.7 0,2.5 -1,4 -3.3,4 -2.2,0 -3.3,-1.5 -3.3,-4 l 0,-1.8 -3,0 z"
         inkscape:connector-curvature="0"
         style="fill:#414042" /></g></g></svg>