<?xml version="1.0" encoding="UTF-8" standalone="no"?>
<!-- Generator: Adobe Illustrator 19.0.0, SVG Export Plug-In . SVG Version: 6.00 Build 0)  -->

<svg
   xmlns:dc="http://purl.org/dc/elements/1.1/"
   xmlns:cc="http://creativecommons.org/ns#"
   xmlns:rdf="http://www.w3.org/1999/02/22-rdf-syntax-ns#"
   xmlns:svg="http://www.w3.org/2000/svg"
   xmlns="http://www.w3.org/2000/svg"
   xmlns:sodipodi="http://sodipodi.sourceforge.net/DTD/sodipodi-0.dtd"
   xmlns:inkscape="http://www.inkscape.org/namespaces/inkscape"
   version="1.1"
   id="Layer_1"
   x="0px"
   y="0px"
   width="140"
   height="100"
   viewBox="0 0 139.99999 100"
   xml:space="preserve"
   inkscape:version="0.91 r13725"
   sodipodi:docname="char_fish2.svg"><metadata
     id="metadata83"><rdf:RDF><cc:Work
         rdf:about=""><dc:format>image/svg+xml</dc:format><dc:type
           rdf:resource="http://purl.org/dc/dcmitype/StillImage" /><dc:title /></cc:Work></rdf:RDF></metadata><defs
     id="defs81" /><sodipodi:namedview
     pagecolor="#ffffff"
     bordercolor="#666666"
     borderopacity="1"
     objecttolerance="10"
     gridtolerance="10"
     guidetolerance="10"
     inkscape:pageopacity="0"
     inkscape:pageshadow="2"
     inkscape:window-width="1920"
     inkscape:window-height="1017"
     id="namedview79"
     showgrid="false"
     fit-margin-top="0"
     fit-margin-left="0"
     fit-margin-right="0"
     fit-margin-bottom="0"
     inkscape:zoom="0.41142857"
     inkscape:cx="611.91095"
     inkscape:cy="343.29285"
     inkscape:window-x="-8"
     inkscape:window-y="-8"
     inkscape:window-maximized="1"
     inkscape:current-layer="XMLID_22_" /><style
     type="text/css"
     id="style3">
	.st0{fill:#414042;}
</style><g
     id="XMLID_22_"
     transform="translate(-72.683333,-815.86946)"><g
       id="XMLID_11_"
       transform="translate(26,216)"><path
         style="fill:#414042"
         inkscape:connector-curvature="0"
         d="m 121.1,618 c -0.7,0.2 -16,5.6 -20.7,20.6 -19.2,1.9 -36.5,8.9 -47.5,19.5 l -1.9,1.9 1.9,1.9 c 12.9,12.5 34.6,20 58,20 8.2,0 16.3,-0.9 23.8,-2.7 5.6,6.7 14.5,6.9 14.9,6.9 l 3.8,0.1 -4.3,-11.7 c 4.1,-1.8 8,-3.8 11.5,-6.1 3.1,4 8.8,6.9 15.4,7.9 l 6.7,1 -4.3,-5.3 c -2.9,-3.5 -4.3,-7.3 -4.3,-11.2 0,-3.9 1.5,-7.6 4.3,-11.1 l 4.3,-5.3 -6.7,1 c -5.9,0.9 -11.1,3.4 -14.4,6.7 -2.9,-2 -6,-3.8 -9.3,-5.3 l 6.3,-13.6 -3.8,-0.2 c -0.5,0 -12.1,-0.7 -19.4,7.9 -3.8,-0.9 -7.7,-1.6 -11.7,-2.1 l 0.9,-22.1 -3.5,1.3 z m -1.9,6.6 -0.6,13.7 c -2.5,-0.2 -5.1,-0.3 -7.7,-0.3 -1.6,0 -3.2,0 -4.8,0.1 3,-7.1 9.1,-11.4 13.1,-13.5 z m 21.4,52.9 c 1.3,-0.4 2.5,-0.8 3.7,-1.2 l 1.4,3.8 c -1.6,-0.5 -3.4,-1.3 -5.1,-2.6 z m 9.9,-39 -2.9,6.2 c -2.1,-0.8 -4.2,-1.6 -6.3,-2.2 3,-2.5 6.5,-3.5 9.2,-4 z m 10.1,19.3 2.2,1.7 1.5,-2.3 c 1.3,-2 3.6,-3.7 6.4,-4.9 -1.2,2.8 -1.8,5.6 -1.8,8.5 0,2.9 0.6,5.8 1.8,8.5 -3.3,-1.4 -5.9,-3.5 -7,-5.9 l -1.3,-2.9 -2.6,1.9 c -12.3,8.9 -30.2,14.1 -49,14.1 -20.8,0 -40.1,-6.2 -52.3,-16.7 12.2,-10.5 31.4,-16.7 52.3,-16.7 19.4,0.1 37.5,5.4 49.8,14.7 z"
         class="st0"
         id="XMLID_128_" /><circle
         style="fill:#414042"
         r="2.5999999"
         cy="655.59998"
         cx="77.199997"
         class="st0"
         id="XMLID_88_" /></g></g></svg>