<?xml version="1.0" encoding="UTF-8" standalone="no"?>
<!-- Generator: Adobe Illustrator 19.0.0, SVG Export Plug-In . SVG Version: 6.00 Build 0)  -->

<svg
   xmlns:dc="http://purl.org/dc/elements/1.1/"
   xmlns:cc="http://creativecommons.org/ns#"
   xmlns:rdf="http://www.w3.org/1999/02/22-rdf-syntax-ns#"
   xmlns:svg="http://www.w3.org/2000/svg"
   xmlns="http://www.w3.org/2000/svg"
   xmlns:sodipodi="http://sodipodi.sourceforge.net/DTD/sodipodi-0.dtd"
   xmlns:inkscape="http://www.inkscape.org/namespaces/inkscape"
   version="1.1"
   id="Layer_1"
   x="0px"
   y="0px"
   width="140"
   height="100"
   viewBox="0 0 139.99999 100"
   xml:space="preserve"
   inkscape:version="0.91 r13725"
   sodipodi:docname="char_cat.svg"><metadata
     id="metadata83"><rdf:RDF><cc:Work
         rdf:about=""><dc:format>image/svg+xml</dc:format><dc:type
           rdf:resource="http://purl.org/dc/dcmitype/StillImage" /><dc:title /></cc:Work></rdf:RDF></metadata><defs
     id="defs81" /><sodipodi:namedview
     pagecolor="#ffffff"
     bordercolor="#666666"
     borderopacity="1"
     objecttolerance="10"
     gridtolerance="10"
     guidetolerance="10"
     inkscape:pageopacity="0"
     inkscape:pageshadow="2"
     inkscape:window-width="1920"
     inkscape:window-height="1017"
     id="namedview79"
     showgrid="false"
     fit-margin-top="0"
     fit-margin-left="0"
     fit-margin-right="0"
     fit-margin-bottom="0"
     inkscape:zoom="0.41142857"
     inkscape:cx="957.97911"
     inkscape:cy="-72.67326"
     inkscape:window-x="-8"
     inkscape:window-y="-8"
     inkscape:window-maximized="1"
     inkscape:current-layer="XMLID_22_" /><style
     type="text/css"
     id="style3">
	.st0{fill:#414042;}
</style><g
     id="XMLID_22_"
     transform="translate(-72.683333,-815.86946)"><g
       id="XMLID_1_"
       transform="translate(36,650)"><path
         style="fill:#414042"
         inkscape:connector-curvature="0"
         d="m 44.9,218.2 c -0.5,0 -0.8,0.5 -0.8,0.9 0,0.5 0.4,0.8 0.9,0.8 0,0 0,0 0.1,0 l 10.7,-0.8 c 0,0.7 0.1,1.2 0.1,1.3 l 0.1,1 0.7,0.7 c 0.1,0.1 1.3,1.3 3.3,2.8 l -12.6,5 c -0.4,0.2 -0.7,0.7 -0.5,1.1 0.1,0.3 0.5,0.5 0.8,0.5 0.1,0 0.2,0 0.3,-0.1 L 61.5,226 c 4.5,3.2 11.8,7.4 20.3,8.1 l 0,28.9 16.5,0 0,-12 c 0,-0.6 0.5,-1.1 1.1,-1.1 l 34.9,0 c 0.6,0 1.1,0.5 1.1,1.1 l 0,12 16.6,0 0,-34.6 c 0,-2.8 -0.5,-5.4 -1.3,-7.9 17.7,-10.3 22.9,-27.9 13.8,-47.7 -0.8,-1.7 -2.2,-3 -3.9,-3.6 -1.7,-0.6 -3.6,-0.6 -5.3,0.2 -1.7,0.8 -3,2.2 -3.6,3.9 -0.6,1.7 -0.6,3.6 0.2,5.3 6.3,13.6 3.1,23.9 -9.4,30.5 -4.1,-3.1 -9.2,-5 -14.7,-5 l -15.6,0 c -0.3,-1.7 -0.7,-3.5 -1.2,-5.2 3.1,-2.7 8.5,-9.1 8.6,-20.8 l 0,-2.4 -2.4,-0.2 c -9.8,-0.9 -16.4,2.8 -19.5,5 -3.8,-2.1 -8.2,-3.2 -13.3,-3.2 -5,0 -9.3,1.1 -13.1,3.3 -2.9,-2.2 -9.7,-6 -19.6,-5.2 l -2.4,0.2 0,2.4 c 0.2,12.2 6,18.6 9,21.1 -1,3.4 -1.6,6.8 -1.9,9.9 l -10.2,-2.3 c -0.5,-0.1 -0.9,0.2 -1,0.7 -0.1,0.5 0.2,0.9 0.7,1 l 10.4,2.3 c -0.2,2.6 -0.3,4.9 -0.3,6.6 l -11.1,0.9 z m 111.6,-41.7 c -0.2,-0.4 -0.2,-0.9 -0.1,-1.3 0.2,-0.4 0.5,-0.8 0.9,-1 0.4,-0.2 0.9,-0.2 1.3,-0.1 0.4,0.2 0.8,0.5 1,0.9 8,17.4 4,31.8 -11.3,40.8 -0.6,-1 -1.3,-2 -2,-2.8 13.8,-8.1 17.4,-20.9 10.2,-36.5 z m -44.4,45.6 0.7,-0.7 0.1,-0.9 c 0,-0.1 0.1,-0.6 0.1,-1.4 l 10.7,0.8 c 0,0 0,0 0.1,0 0.5,0 0.8,-0.3 0.9,-0.8 0,-0.5 -0.3,-0.9 -0.8,-0.9 l -10.8,-0.8 c 0,-1.7 0,-4 -0.1,-6.6 l 6.1,-1.4 8.7,0 c 10.5,0 19,8.5 19,19 l 0,29.4 -6,0 0,-6.8 c 0,-3.5 -2.9,-6.4 -6.4,-6.4 l -35,0 c -3.5,0 -6.4,2.9 -6.4,6.4 l 0,6.8 -6,0 0,-23.6 c 8.4,-0.7 15.7,-4.9 20.2,-8.1 l 13.5,5.4 c 0.1,0 0.2,0.1 0.3,0.1 0.3,0 0.7,-0.2 0.8,-0.5 0.2,-0.4 0,-1 -0.5,-1.1 l -12.6,-5 c 2.1,-1.6 3.3,-2.8 3.4,-2.9 z m 2.1,-41.6 c -0.6,6.5 -3.1,10.6 -5.2,12.9 -1.3,-2.9 -3,-5.7 -5.2,-8.1 -0.5,-0.6 -1,-1.1 -1.6,-1.6 2.4,-1.4 6.5,-3.1 12,-3.2 z m -29.8,2 c 6.5,0 11.7,2.1 15.5,6.3 5.3,5.8 7.1,14.6 7.7,21.3 l -9,2 c -0.5,0.1 -0.8,0.6 -0.7,1 0.1,0.4 0.5,0.7 0.8,0.7 0.1,0 0.1,0 0.2,0 l 8.7,-2 c 0.1,2 0.1,3.7 0.1,5.1 l -8.6,-0.6 c -0.5,0 -0.9,0.3 -0.9,0.8 0,0.5 0.3,0.9 0.8,0.9 l 8.7,0.6 c 0,0.1 0,0.2 0,0.3 -0.9,0.8 -2.5,2.1 -4.6,3.6 l -4.6,-1.8 c -0.4,-0.2 -1,0 -1.1,0.5 -0.2,0.4 0,1 0.5,1.1 l 3.4,1.4 c -4.4,2.7 -10.4,5.4 -16.9,5.4 -6.5,0 -12.5,-2.7 -16.9,-5.4 l 3.4,-1.4 c 0.4,-0.2 0.7,-0.7 0.5,-1.1 -0.2,-0.4 -0.7,-0.7 -1.1,-0.5 l -4.6,1.8 c -2.1,-1.4 -3.7,-2.8 -4.6,-3.5 0,-0.1 0,-0.2 0,-0.3 l 8.6,-0.6 c 0.5,0 0.8,-0.5 0.8,-0.9 0,-0.5 -0.5,-0.8 -0.9,-0.8 L 61,217 c 0,-1.3 0.1,-3.1 0.2,-5 l 8.5,1.9 c 0.1,0 0.1,0 0.2,0 0.4,0 0.8,-0.3 0.8,-0.7 0.1,-0.5 -0.2,-0.9 -0.7,-1 l -8.7,-2 c 0.7,-6.9 2.8,-15.9 8.2,-21.7 3.9,-4 8.7,-6 14.9,-6 z m -29.8,-2 c 5.7,0 9.9,1.9 12.3,3.4 -0.4,0.3 -0.7,0.7 -1.1,1.1 -2.4,2.6 -4.3,5.6 -5.7,8.9 -2.1,-2.3 -4.8,-6.5 -5.5,-13.4 z"
         class="st0"
         id="XMLID_92_" /><path
         style="fill:#414042"
         inkscape:connector-curvature="0"
         d="m 84.4,208.7 c -7.4,0 -6.2,5.4 0,8.7 6.2,-3.3 7.5,-8.7 0,-8.7 z"
         class="st0"
         id="XMLID_54_" /></g></g></svg>