<?xml version="1.0" encoding="UTF-8" standalone="no"?>
<!-- Generator: Adobe Illustrator 19.0.0, SVG Export Plug-In . SVG Version: 6.00 Build 0)  -->

<svg
   xmlns:dc="http://purl.org/dc/elements/1.1/"
   xmlns:cc="http://creativecommons.org/ns#"
   xmlns:rdf="http://www.w3.org/1999/02/22-rdf-syntax-ns#"
   xmlns:svg="http://www.w3.org/2000/svg"
   xmlns="http://www.w3.org/2000/svg"
   xmlns:sodipodi="http://sodipodi.sourceforge.net/DTD/sodipodi-0.dtd"
   xmlns:inkscape="http://www.inkscape.org/namespaces/inkscape"
   version="1.1"
   id="Layer_1"
   x="0px"
   y="0px"
   width="140"
   height="100"
   viewBox="0 0 139.99999 100"
   xml:space="preserve"
   inkscape:version="0.91 r13725"
   sodipodi:docname="char_lion.svg"><metadata
     id="metadata83"><rdf:RDF><cc:Work
         rdf:about=""><dc:format>image/svg+xml</dc:format><dc:type
           rdf:resource="http://purl.org/dc/dcmitype/StillImage" /><dc:title /></cc:Work></rdf:RDF></metadata><defs
     id="defs81" /><sodipodi:namedview
     pagecolor="#ffffff"
     bordercolor="#666666"
     borderopacity="1"
     objecttolerance="10"
     gridtolerance="10"
     guidetolerance="10"
     inkscape:pageopacity="0"
     inkscape:pageshadow="2"
     inkscape:window-width="1920"
     inkscape:window-height="1017"
     id="namedview79"
     showgrid="false"
     fit-margin-top="0"
     fit-margin-left="0"
     fit-margin-right="0"
     fit-margin-bottom="0"
     inkscape:zoom="0.41142857"
     inkscape:cx="985.9504"
     inkscape:cy="206.80155"
     inkscape:window-x="-8"
     inkscape:window-y="-8"
     inkscape:window-maximized="1"
     inkscape:current-layer="XMLID_22_" /><style
     type="text/css"
     id="style3">
	.st0{fill:#414042;}
</style><g
     id="XMLID_22_"
     transform="translate(-72.683333,-815.86946)"><g
       id="XMLID_10_"
       transform="translate(28,428)"><path
         style="fill:#414042"
         inkscape:connector-curvature="0"
         d="m 92.5,426.8 c -5.8,0 -4.8,4.2 0,6.8 4.9,-2.6 5.8,-6.8 0,-6.8 z"
         class="st0"
         id="XMLID_87_" /><path
         style="fill:#414042"
         inkscape:connector-curvature="0"
         d="m 55.9,432.2 -0.8,1.2 0.6,1.3 c 3.3,7 11.5,12.8 19.5,18.4 5.4,3.8 10.8,7.6 13.3,11.1 l 0,21.4 16.5,0 0,-12 c 0,-0.6 0.5,-1.1 1.1,-1.1 l 34.9,0 c 0.6,0 1.1,0.5 1.1,1.1 l 0,12 16.5,0 0,-34.6 c 0,-2.8 -0.5,-5.4 -1.3,-7.9 17.7,-10.3 22.9,-27.9 13.8,-47.7 -0.8,-1.7 -2.2,-3 -3.9,-3.6 -1.7,-0.6 -3.6,-0.6 -5.3,0.2 -1.7,0.8 -3,2.2 -3.6,3.9 -0.6,1.7 -0.6,3.6 0.2,5.3 6.3,13.6 3.1,23.9 -9.4,30.5 -4.1,-3.1 -9.2,-5 -14.7,-5 l -8.4,0 c -1.9,-3.6 -4.4,-8.5 -6.5,-13.7 -0.2,-0.5 -0.4,-1 -0.6,-1.5 0.8,-2.3 1.4,-5.1 1.5,-8.5 l 0,-2.4 -2.4,-0.2 c -2.7,-0.2 -5.1,0 -7.1,0.4 -5.1,-4.2 -11.3,-6.4 -18.3,-6.4 -7,0 -13.3,2.2 -18.3,6.5 -2.1,-0.5 -4.6,-0.7 -7.3,-0.4 l -2.4,0.2 0,2.4 c 0,3.5 0.7,6.4 1.6,8.8 -0.2,0.4 -0.4,0.8 -0.5,1.2 -4.1,10 -9.7,19 -9.8,19.1 z M 163.3,399 c -0.2,-0.4 -0.2,-0.9 -0.1,-1.3 0.2,-0.4 0.5,-0.8 0.9,-1 0.4,-0.2 0.9,-0.2 1.3,-0.1 0.4,0.2 0.8,0.5 1,0.9 8,17.4 4,31.8 -11.3,40.8 -0.6,-1 -1.3,-1.9 -2,-2.8 13.8,-8 17.4,-20.9 10.2,-36.5 z m -34,33.2 c 0,0 -0.1,-0.1 -0.2,-0.3 l 5.4,0 c 10.5,0 19,8.5 19,19 l 0,29.4 -6,0 0,-6.8 c 0,-3.5 -2.9,-6.4 -6.4,-6.4 l -34.9,0 c -3.5,0 -6.4,2.9 -6.4,6.4 l 0,6.8 -6,0 0,-12.9 1.4,0 c 0.2,-4 7.6,-9.2 14.7,-14.3 7.9,-5.6 16.2,-11.4 19.5,-18.4 l 0.6,-1.3 -0.7,-1.2 z M 115,405.5 c -0.5,4 -1.9,6.7 -3.3,8.4 -1.2,-2.5 -2.7,-4.6 -4.4,-6.4 1.7,-0.9 4.3,-1.9 7.7,-2 z m -5.4,19.1 c -2.6,2.2 -8.2,7.8 -8.5,15.7 -2.9,1.2 -5.8,1.8 -8.5,1.8 -2.7,0 -5.5,-0.6 -8.5,-1.8 -0.4,-7.9 -5.8,-13.5 -8.4,-15.7 2.1,-11.7 7.7,-17.6 16.8,-17.6 9.4,0.1 15.2,6 17.1,17.6 z m -17,-25 c 4.5,0 8.7,1.1 12.3,3.3 -0.8,0.4 -1.6,0.9 -2.1,1.3 -3,-1.6 -6.4,-2.4 -10.3,-2.4 -3.8,0 -7.2,0.8 -10.2,2.5 -0.6,-0.4 -1.3,-0.9 -2.1,-1.3 3.6,-2.3 7.8,-3.4 12.4,-3.4 z m -14.7,8.1 c -1.7,1.8 -3.2,4 -4.4,6.6 -1.4,-1.7 -3,-4.5 -3.5,-8.7 3.5,0.1 6.2,1.1 7.9,2.1 z m -8.5,9.8 c 0.7,0.9 1.4,1.6 2,2.1 -0.5,1.8 -0.9,3.7 -1.2,5.7 l -0.2,1.6 1.3,0.9 c 0.1,0.1 7.9,5.8 7.5,14 l -0.1,1.7 1.6,0.8 c 4.1,2 8.2,3 12.2,3 4,0 8.1,-1 12.3,-3 l 1.6,-0.8 -0.1,-1.7 c -0.4,-8.1 7.4,-13.9 7.6,-14 l 1.3,-0.9 -0.2,-1.6 c -0.3,-2.1 -0.7,-4.1 -1.2,-5.9 0.6,-0.5 1.3,-1.2 1.9,-2.1 3.1,7.4 6.8,13.7 8.3,16.4 -3.2,5.3 -10.3,10.3 -17.1,15.2 -5.9,4.2 -11.3,7.9 -14.3,11.9 -3,-4 -8.4,-7.8 -14.3,-11.9 -6.9,-4.9 -14,-9.9 -17.1,-15.2 1.5,-2.6 5.1,-8.9 8.2,-16.2 z"
         class="st0"
         id="XMLID_119_" /></g></g></svg>