<?xml version="1.0" encoding="UTF-8" standalone="no"?>
<!-- Generator: Adobe Illustrator 19.0.0, SVG Export Plug-In . SVG Version: 6.00 Build 0)  -->

<svg
   xmlns:dc="http://purl.org/dc/elements/1.1/"
   xmlns:cc="http://creativecommons.org/ns#"
   xmlns:rdf="http://www.w3.org/1999/02/22-rdf-syntax-ns#"
   xmlns:svg="http://www.w3.org/2000/svg"
   xmlns="http://www.w3.org/2000/svg"
   xmlns:sodipodi="http://sodipodi.sourceforge.net/DTD/sodipodi-0.dtd"
   xmlns:inkscape="http://www.inkscape.org/namespaces/inkscape"
   version="1.1"
   id="Layer_1"
   x="0px"
   y="0px"
   width="140"
   height="100"
   viewBox="0 0 139.99999 100"
   xml:space="preserve"
   inkscape:version="0.91 r13725"
   sodipodi:docname="char_fish.svg"><metadata
     id="metadata83"><rdf:RDF><cc:Work
         rdf:about=""><dc:format>image/svg+xml</dc:format><dc:type
           rdf:resource="http://purl.org/dc/dcmitype/StillImage" /><dc:title /></cc:Work></rdf:RDF></metadata><defs
     id="defs81" /><sodipodi:namedview
     pagecolor="#ffffff"
     bordercolor="#666666"
     borderopacity="1"
     objecttolerance="10"
     gridtolerance="10"
     guidetolerance="10"
     inkscape:pageopacity="0"
     inkscape:pageshadow="2"
     inkscape:window-width="1920"
     inkscape:window-height="1017"
     id="namedview79"
     showgrid="false"
     fit-margin-top="0"
     fit-margin-left="0"
     fit-margin-right="0"
     fit-margin-bottom="0"
     inkscape:zoom="0.58184786"
     inkscape:cx="587.22503"
     inkscape:cy="448.76042"
     inkscape:window-x="-8"
     inkscape:window-y="-8"
     inkscape:window-maximized="1"
     inkscape:current-layer="XMLID_22_" /><style
     type="text/css"
     id="style3">
	.st0{fill:#414042;}
</style><g
     id="XMLID_22_"
     transform="translate(-72.683333,-815.86946)"><g
       id="XMLID_16_"
       transform="translate(26,0)"><path
         style="fill:#414042"
         inkscape:connector-curvature="0"
         d="m 152.6,819 -5,-0.7 c -3.7,-0.5 -7.4,-0.8 -11,-0.8 -34.5,0 -62.5,21.5 -62.5,47.8 0,26.4 28,47.8 62.5,47.8 3.6,0 7.3,-0.3 11,-0.8 l 5,-0.7 -3.5,-3.7 c -8,-8.5 -13.5,-18.3 -16.1,-28.5 4.7,3.5 11,5.5 17.6,5.5 1.5,0 2.9,-0.1 4.4,-0.3 l 5,-0.7 -3.5,-3.7 c -4.2,-4.5 -6.4,-9.7 -6.4,-15.1 0,-5.4 2.2,-10.6 6.4,-15.1 l 3.5,-3.7 -5,-0.7 c -1.5,-0.2 -2.9,-0.3 -4.4,-0.3 -6.7,0 -12.9,2 -17.6,5.5 2.6,-10.2 8.2,-20 16.1,-28.5 l 3.5,-3.3 z m -25.5,34.5 c -0.3,1.6 0.5,3.2 2,4 1.8,1 4,0.7 5.3,-0.7 3.6,-3.5 9.1,-5.7 15,-5.9 -3,4.5 -4.5,9.4 -4.5,14.5 0,5.1 1.5,10.1 4.5,14.5 -5.9,-0.3 -11.5,-2.4 -15,-5.9 -1.4,-1.4 -3.6,-1.6 -5.3,-0.7 -1.5,0.8 -2.3,2.4 -2,4 2.1,10.8 7.2,21.2 14.8,30.5 -1.8,0.1 -3.6,0.2 -5.4,0.2 -31.6,0 -57.3,-19.1 -57.3,-42.6 0,-23.5 25.7,-42.6 57.3,-42.6 1.8,0 3.6,0.1 5.4,0.2 -7.6,9.2 -12.7,19.7 -14.8,30.5 z"
         class="st0"
         id="XMLID_152_" /><circle
         style="fill:#414042"
         r="4.5999999"
         cy="858.70001"
         cx="90.599998"
         class="st0"
         id="XMLID_136_" /></g></g></svg>