<?xml version="1.0" encoding="UTF-8" standalone="no"?>
<!-- Generator: Adobe Illustrator 19.0.0, SVG Export Plug-In . SVG Version: 6.00 Build 0)  -->

<svg
   xmlns:dc="http://purl.org/dc/elements/1.1/"
   xmlns:cc="http://creativecommons.org/ns#"
   xmlns:rdf="http://www.w3.org/1999/02/22-rdf-syntax-ns#"
   xmlns:svg="http://www.w3.org/2000/svg"
   xmlns="http://www.w3.org/2000/svg"
   xmlns:sodipodi="http://sodipodi.sourceforge.net/DTD/sodipodi-0.dtd"
   xmlns:inkscape="http://www.inkscape.org/namespaces/inkscape"
   version="1.1"
   id="Layer_1"
   x="0px"
   y="0px"
   width="140"
   height="100"
   viewBox="0 0 139.99999 100"
   xml:space="preserve"
   inkscape:version="0.91 r13725"
   sodipodi:docname="char_elephant.svg"><metadata
     id="metadata83"><rdf:RDF><cc:Work
         rdf:about=""><dc:format>image/svg+xml</dc:format><dc:type
           rdf:resource="http://purl.org/dc/dcmitype/StillImage" /><dc:title /></cc:Work></rdf:RDF></metadata><defs
     id="defs81" /><sodipodi:namedview
     pagecolor="#ffffff"
     bordercolor="#666666"
     borderopacity="1"
     objecttolerance="10"
     gridtolerance="10"
     guidetolerance="10"
     inkscape:pageopacity="0"
     inkscape:pageshadow="2"
     inkscape:window-width="1920"
     inkscape:window-height="1017"
     id="namedview79"
     showgrid="false"
     fit-margin-top="0"
     fit-margin-left="0"
     fit-margin-right="0"
     fit-margin-bottom="0"
     inkscape:zoom="0.41142857"
     inkscape:cx="-483.38685"
     inkscape:cy="507.66952"
     inkscape:window-x="-8"
     inkscape:window-y="-8"
     inkscape:window-maximized="1"
     inkscape:current-layer="XMLID_22_" /><style
     type="text/css"
     id="style3">
	.st0{fill:#414042;}
</style><g
     id="XMLID_22_"
     transform="translate(-72.683333,-815.86946)"><g
       id="XMLID_20_"
       transform="translate(-1124,0)"><path
         style="fill:#414042"
         inkscape:connector-curvature="0"
         d="m 1276.4,823.7 c -2.1,0 -4.1,0.3 -6,0.9 -5.5,-5.1 -12.7,-7.7 -20.3,-7.3 -6.5,0.4 -12.5,3.2 -17,7.4 -2.1,-0.7 -4.3,-1.1 -6.6,-1.1 -11.7,0 -21.2,9.5 -21.2,21.2 0,11.7 9.5,21.2 21.2,21.2 2.5,0 4.9,-0.4 7.2,-1.3 2.4,2.1 5.2,3.9 8.3,5.1 l 0,0.2 c 0,4.1 -3.3,7.5 -7.5,7.5 l -7.2,0 c -4.7,0 -8.6,3.7 -8.8,8.3 -0.1,2.3 0.8,4.5 2.4,6.2 1.6,1.7 3.8,2.6 6.1,2.6 l 7.4,0 c 4.9,0 9.5,-1.5 13.4,-4 l 0,22.9 17.9,0 0,-13.2 c 0,-0.9 0.7,-1.6 1.6,-1.6 l 39.4,0 c 0.9,0 1.6,0.7 1.6,1.6 l 0,13.2 17.9,0 0,-38.7 c 0,-14.9 -12.1,-27 -27,-27 l -2,0 c 0.1,-1 0.2,-1.9 0.2,-2.9 0.3,-11.7 -9.3,-21.2 -21,-21.2 z m 0,5.2 c 8.8,0 16,7.2 16,16 0,8.8 -7.2,16 -16,16 -0.9,0 -1.8,-0.1 -2.7,-0.2 3.4,-4.6 5.3,-10.2 5.3,-16.1 0,-5.5 -1.7,-10.9 -4.8,-15.4 0.8,-0.2 1.5,-0.3 2.2,-0.3 z m -49.8,32 c -8.8,0 -16,-7.2 -16,-16 0,-8.8 7.2,-16 16,-16 0.9,0 1.9,0.1 2.8,0.2 -2.6,3.8 -4.3,8.2 -4.7,13 -0.6,6.7 1.4,13.2 5.2,18.4 -1.1,0.2 -2.2,0.4 -3.3,0.4 z m 8.1,28.5 -7.4,0 c -0.9,0 -1.7,-0.4 -2.4,-1 -0.6,-0.6 -1,-1.5 -0.9,-2.4 0.1,-1.8 1.6,-3.2 3.5,-3.2 l 7.2,0 c 7,0 12.7,-5.7 12.7,-12.7 l 0,-0.7 c 0,-1.9 -1.2,-3.6 -2.9,-4.2 -9.4,-3.4 -15.3,-12.6 -14.5,-22.6 0.9,-10.8 9.7,-19.4 20.5,-20.1 6.2,-0.4 12,1.7 16.5,5.9 4.5,4.2 6.9,9.9 6.9,16 0,10.1 -6.8,18.8 -16.6,21.3 -2,0.5 -3.3,2.3 -3.3,4.3 -0.1,10.7 -8.7,19.4 -19.3,19.4 z m 64.8,-36.4 c 12,0 21.8,9.8 21.8,21.8 l 0,33.5 -7.5,0 0,-8 c 0,-3.8 -3.1,-6.8 -6.8,-6.8 l -39.4,0 c -3.8,0 -6.8,3.1 -6.8,6.8 l 0,8 -7.5,0 0,-22.3 c 3.6,-4.1 5.8,-9.5 5.9,-15.3 4,-1.1 7.6,-3.1 10.6,-5.7 2.2,0.7 4.4,1.1 6.7,1.1 8.8,0 16.4,-5.4 19.6,-13.1 l 3.4,0 z"
         class="st0"
         id="XMLID_194_" /></g></g></svg>