<?xml version="1.0" encoding="UTF-8" standalone="no"?>
<!-- Generator: Adobe Illustrator 19.0.0, SVG Export Plug-In . SVG Version: 6.00 Build 0)  -->

<svg
   xmlns:dc="http://purl.org/dc/elements/1.1/"
   xmlns:cc="http://creativecommons.org/ns#"
   xmlns:rdf="http://www.w3.org/1999/02/22-rdf-syntax-ns#"
   xmlns:svg="http://www.w3.org/2000/svg"
   xmlns="http://www.w3.org/2000/svg"
   xmlns:sodipodi="http://sodipodi.sourceforge.net/DTD/sodipodi-0.dtd"
   xmlns:inkscape="http://www.inkscape.org/namespaces/inkscape"
   version="1.1"
   id="Layer_1"
   x="0px"
   y="0px"
   width="140"
   height="100"
   viewBox="0 0 139.99999 100"
   xml:space="preserve"
   inkscape:version="0.91 r13725"
   sodipodi:docname="char_camel.svg"><metadata
     id="metadata83"><rdf:RDF><cc:Work
         rdf:about=""><dc:format>image/svg+xml</dc:format><dc:type
           rdf:resource="http://purl.org/dc/dcmitype/StillImage" /><dc:title /></cc:Work></rdf:RDF></metadata><defs
     id="defs81" /><sodipodi:namedview
     pagecolor="#ffffff"
     bordercolor="#666666"
     borderopacity="1"
     objecttolerance="10"
     gridtolerance="10"
     guidetolerance="10"
     inkscape:pageopacity="0"
     inkscape:pageshadow="2"
     inkscape:window-width="1920"
     inkscape:window-height="1017"
     id="namedview79"
     showgrid="false"
     fit-margin-top="0"
     fit-margin-left="0"
     fit-margin-right="0"
     fit-margin-bottom="0"
     inkscape:zoom="0.29092393"
     inkscape:cx="-395.42182"
     inkscape:cy="-11.354543"
     inkscape:window-x="-8"
     inkscape:window-y="-8"
     inkscape:window-maximized="1"
     inkscape:current-layer="XMLID_22_" /><style
     type="text/css"
     id="style3">
	.st0{fill:#414042;}
</style><g
     id="XMLID_22_"
     transform="translate(-72.683333,-815.86946)"><g
       id="XMLID_7_"
       transform="translate(-836,428)"><path
         style="fill:#414042"
         inkscape:connector-curvature="0"
         d="m 953.4,390.3 -4.9,0 c -3.5,0 -6.3,2.8 -6.3,6.4 0,0.6 -0.5,1.1 -1.1,1.1 l -6,0 c -4.4,0 -8,3.4 -8.1,7.7 -0.1,2.2 0.7,4.2 2.2,5.8 1.5,1.6 3.5,2.4 5.7,2.4 l 6.2,0 c 0.6,0 1.1,0.5 1.1,1.1 l 0,24.3 c 0,7.1 3.9,13.6 10.2,17 1.2,0.6 1.9,1.8 1.9,3 l 0,27.5 14.2,0 0,-24.9 c 0,-1.9 1.5,-3.4 3.4,-3.4 l 28.7,0 c 2.5,5.7 7.2,8.9 10.7,10.5 l 0,17.7 14.2,0 0,-35 c 0.7,-2.1 3.8,-12.1 4.4,-16 0.4,-3.3 -0.6,-6.5 -2.9,-9.1 -2.6,-3 -6.6,-4.8 -10.7,-4.8 l -4.1,0 c -0.4,0 -0.7,-0.2 -0.9,-0.5 l -4.2,-7 c -1.1,-1.9 -3.1,-3 -5.3,-3 0,0 -0.1,0 -0.1,0 -2.2,0 -4.2,1.1 -5.3,2.9 l -4.5,7.1 c -0.2,0.3 -0.6,0.5 -0.9,0.5 l -0.6,0 c -0.4,0 -0.7,-0.2 -0.9,-0.5 l -4.2,-7 c -1.1,-1.9 -3.1,-3 -5.3,-3 0,0 0,0 -0.1,0 -2.2,0 -4.2,1.1 -5.3,2.9 l -4.5,7.1 c -0.2,0.3 -0.6,0.5 -0.9,0.5 -0.6,0 -1.1,-0.5 -1.1,-1.1 l 0,-16 c -0.4,-7.8 -6.8,-14.2 -14.7,-14.2 z m 15.4,36.6 c 2.2,0 4.2,-1.1 5.3,-2.9 l 4.5,-7.1 c 0.3,-0.4 0.7,-0.5 0.9,-0.5 0.2,0 0.7,0.1 0.9,0.5 l 4.2,7 c 1.1,1.9 3.2,3 5.4,3 l 0.6,0 c 2.2,0 4.2,-1.1 5.3,-2.9 l 4.5,-7.1 c 0.3,-0.5 0.7,-0.5 0.9,-0.5 0.2,0 0.7,0.1 0.9,0.5 l 4.2,7 c 1.1,1.9 3.2,3 5.4,3 l 4.1,0 c 2.5,0 5.1,1.2 6.7,3 0.9,1 1.9,2.7 1.6,4.9 -0.4,3.2 -3.2,12.3 -4.3,15.5 l -0.1,0.4 0,30.6 -3.8,0 0,-16 -1.7,-0.7 c -2.9,-1.1 -8.1,-3.9 -10,-9.8 l -0.6,-1.8 -32.4,0 c -4.7,0 -8.6,3.9 -8.6,8.6 l 0,19.6 -3.8,0 0,-22.2 c 0,-3.2 -1.8,-6.1 -4.7,-7.6 -4.6,-2.4 -7.4,-7.2 -7.4,-12.3 l 0,-24.3 c 0,-3.5 -2.9,-6.4 -6.4,-6.4 l -6.2,0 c -0.7,0 -1.4,-0.3 -1.9,-0.8 -0.5,-0.5 -0.8,-1.2 -0.8,-2 0,-1.4 1.4,-2.6 2.9,-2.6 l 6,0 c 3.4,0 6.3,-2.8 6.4,-6.2 0,-0.6 0.4,-1.3 1.1,-1.3 l 4.9,0 c 5,0 9.1,4.1 9.1,9.1 l 0,16 c 0.6,3.5 3.4,6.3 6.9,6.3 z"
         class="st0"
         id="XMLID_67_" /></g></g></svg>