<?xml version="1.0" encoding="UTF-8" standalone="no"?>
<!-- Generator: Adobe Illustrator 19.0.0, SVG Export Plug-In . SVG Version: 6.00 Build 0)  -->

<svg
   xmlns:dc="http://purl.org/dc/elements/1.1/"
   xmlns:cc="http://creativecommons.org/ns#"
   xmlns:rdf="http://www.w3.org/1999/02/22-rdf-syntax-ns#"
   xmlns:svg="http://www.w3.org/2000/svg"
   xmlns="http://www.w3.org/2000/svg"
   xmlns:sodipodi="http://sodipodi.sourceforge.net/DTD/sodipodi-0.dtd"
   xmlns:inkscape="http://www.inkscape.org/namespaces/inkscape"
   version="1.1"
   id="Layer_1"
   x="0px"
   y="0px"
   width="140"
   height="100"
   viewBox="0 0 139.99999 100"
   xml:space="preserve"
   inkscape:version="0.91 r13725"
   sodipodi:docname="char_butterfly.svg"><metadata
     id="metadata83"><rdf:RDF><cc:Work
         rdf:about=""><dc:format>image/svg+xml</dc:format><dc:type
           rdf:resource="http://purl.org/dc/dcmitype/StillImage" /><dc:title /></cc:Work></rdf:RDF></metadata><defs
     id="defs81" /><sodipodi:namedview
     pagecolor="#ffffff"
     bordercolor="#666666"
     borderopacity="1"
     objecttolerance="10"
     gridtolerance="10"
     guidetolerance="10"
     inkscape:pageopacity="0"
     inkscape:pageshadow="2"
     inkscape:window-width="1920"
     inkscape:window-height="1017"
     id="namedview79"
     showgrid="false"
     fit-margin-top="0"
     fit-margin-left="0"
     fit-margin-right="0"
     fit-margin-bottom="0"
     inkscape:zoom="0.41142857"
     inkscape:cx="269.00955"
     inkscape:cy="-1.945731"
     inkscape:window-x="-8"
     inkscape:window-y="-8"
     inkscape:window-maximized="1"
     inkscape:current-layer="XMLID_22_" /><style
     type="text/css"
     id="style3">
	.st0{fill:#414042;}
</style><g
     id="XMLID_22_"
     transform="translate(-72.683333,-815.86946)"><g
       id="XMLID_8_"
       transform="translate(-548,428)"><path
         style="fill:#414042"
         inkscape:connector-curvature="0"
         d="m 635.1,401.5 c -6,6 -3.3,16.9 -0.6,27.5 1.6,6.6 3.3,13.3 2.2,16.9 -2.7,8.3 -1.2,16.5 3.8,21.4 2,1.9 5.6,4.4 11.6,4.4 2.7,0 5.9,-0.5 9.6,-1.9 7.9,-2.8 16.9,-8.5 22,-11.9 l 0,14.2 c 0,4 2.6,7.1 5.9,7.1 l 2.4,0 c 3.3,0 5.9,-3.1 5.9,-7.1 l 0,-14.2 c 5.1,3.4 14.1,9.1 22,11.9 3.7,1.3 6.9,1.9 9.6,1.9 5.9,0 9.6,-2.5 11.6,-4.4 5,-4.8 6.5,-13 3.8,-21.4 -1.2,-3.6 0.5,-10.4 2.2,-16.9 2.6,-10.6 5.4,-21.5 -0.6,-27.5 -9.8,-9.9 -27,0.6 -49.7,19.8 -0.1,-0.1 -0.2,-0.2 -0.3,-0.4 1.7,-1.5 2.8,-3.8 2.8,-6.2 0,-4.6 -3.8,-8.4 -8.4,-8.4 -4.6,0 -8.4,3.8 -8.4,8.4 0,2.5 1.1,4.7 2.8,6.2 -0.1,0.1 -0.2,0.2 -0.3,0.4 -22.8,-19.2 -40,-29.6 -49.9,-19.8 z m 62.4,26 c 25.4,-21.8 39,-28.5 45.2,-22.3 3.9,3.9 1.4,13.8 -0.7,22.5 -1.9,7.6 -3.7,14.8 -2.1,19.8 2.1,6.4 1.1,12.6 -2.4,16 -3.4,3.3 -9,3.8 -15.8,1.3 -9.1,-3.3 -20.3,-10.9 -23.8,-13.3 l 0,-17.4 c 0,-1.8 -0.5,-3.4 -1.4,-4.7 0.4,-0.5 0.8,-1.2 1,-1.9 z m -4.9,44.6 c 0,1.1 -0.5,1.8 -0.7,1.8 l -2.3,0 c -0.2,-0.1 -0.7,-0.7 -0.7,-1.9 l 0,-37.9 c 0,-1.1 0.5,-1.8 0.7,-1.8 l 2.4,0 c 0.2,0.1 0.7,0.8 0.7,1.8 l 0,38 z m -1.8,-45 c -1,0 -1.9,-0.8 -1.9,-1.9 0,-1 0.8,-1.9 1.9,-1.9 1.1,0 1.9,0.8 1.9,1.9 -0.1,1.1 -0.9,1.9 -1.9,1.9 z m 0,-15.6 c 1.7,0 3.2,1.4 3.2,3.2 0,1.7 -1.4,3.2 -3.2,3.2 -1.8,0 -3.2,-1.4 -3.2,-3.2 0,-1.7 1.4,-3.2 3.2,-3.2 z m -7.1,22.7 0,17.4 c -3.5,2.4 -14.7,10.1 -23.8,13.3 -6.8,2.4 -12.4,2 -15.8,-1.3 -3.6,-3.4 -4.5,-9.6 -2.4,-16 1.6,-5 -0.2,-12.2 -2.1,-19.8 -2.2,-8.7 -4.7,-18.6 -0.7,-22.5 6.2,-6.2 19.8,0.4 45.2,22.3 0.2,0.7 0.6,1.4 1.1,2 -1,1.1 -1.5,2.8 -1.5,4.6 z"
         class="st0"
         id="XMLID_71_" /></g></g></svg>