<?xml version="1.0" encoding="UTF-8" standalone="no"?>
<!-- Generator: Adobe Illustrator 19.0.0, SVG Export Plug-In . SVG Version: 6.00 Build 0)  -->

<svg
   xmlns:dc="http://purl.org/dc/elements/1.1/"
   xmlns:cc="http://creativecommons.org/ns#"
   xmlns:rdf="http://www.w3.org/1999/02/22-rdf-syntax-ns#"
   xmlns:svg="http://www.w3.org/2000/svg"
   xmlns="http://www.w3.org/2000/svg"
   xmlns:sodipodi="http://sodipodi.sourceforge.net/DTD/sodipodi-0.dtd"
   xmlns:inkscape="http://www.inkscape.org/namespaces/inkscape"
   version="1.1"
   id="Layer_1"
   x="0px"
   y="0px"
   width="140"
   height="100"
   viewBox="0 0 139.99999 100"
   xml:space="preserve"
   inkscape:version="0.91 r13725"
   sodipodi:docname="char_goldfish.svg"><metadata
     id="metadata83"><rdf:RDF><cc:Work
         rdf:about=""><dc:format>image/svg+xml</dc:format><dc:type
           rdf:resource="http://purl.org/dc/dcmitype/StillImage" /><dc:title /></cc:Work></rdf:RDF></metadata><defs
     id="defs81" /><sodipodi:namedview
     pagecolor="#ffffff"
     bordercolor="#666666"
     borderopacity="1"
     objecttolerance="10"
     gridtolerance="10"
     guidetolerance="10"
     inkscape:pageopacity="0"
     inkscape:pageshadow="2"
     inkscape:window-width="1920"
     inkscape:window-height="1017"
     id="namedview79"
     showgrid="false"
     fit-margin-top="0"
     fit-margin-left="0"
     fit-margin-right="0"
     fit-margin-bottom="0"
     inkscape:zoom="0.29092393"
     inkscape:cx="-391.39475"
     inkscape:cy="343.32454"
     inkscape:window-x="-8"
     inkscape:window-y="-8"
     inkscape:window-maximized="1"
     inkscape:current-layer="XMLID_22_" /><style
     type="text/css"
     id="style3">
	.st0{fill:#414042;}
</style><g
     id="XMLID_22_"
     transform="translate(-72.683333,-815.86946)"><g
       id="XMLID_5_"
       transform="translate(-1124,642)"><path
         style="fill:#414042"
         inkscape:connector-curvature="0"
         d="m 1330.4,195.6 -4.7,0.8 c -8.5,1.4 -16,6.7 -20.3,14.2 -12.5,-11.2 -28.4,-17.3 -45.3,-17.3 -22.7,0 -43.9,11.3 -56.5,30.2 l -1,1.5 1,1.5 c 12.7,18.9 33.8,30.2 56.5,30.2 16.9,0 32.8,-6.1 45.3,-17.3 4.3,7.4 11.8,12.8 20.3,14.2 l 4.7,0.8 -1.8,-4.4 c -3.3,-7.9 -5,-16.3 -5,-25 0,-8.7 1.7,-17.1 5,-25 l 1.8,-4.4 z m -8.5,51.5 c -5.9,-2.3 -10.8,-7.1 -13.3,-13 l -1.5,-3.6 -2.8,2.7 c -11.8,11.7 -27.5,18.2 -44.2,18.2 -7.4,0 -14.6,-1.3 -21.4,-3.8 7.5,-9.1 5.4,-21.1 5.3,-21.6 l -5.1,0.9 c 0,0.1 1.9,11.2 -5.3,18.6 -9.7,-4.5 -18.3,-11.5 -24.7,-20.5 11.8,-16.6 30.8,-26.4 51.2,-26.4 16.7,0 32.4,6.5 44.2,18.2 l 2.8,2.7 1.5,-3.6 c 2.5,-6 7.4,-10.7 13.3,-13 -2.4,7.1 -3.6,14.5 -3.6,22.1 0,7.6 1.2,15 3.6,22.1 z"
         class="st0"
         id="XMLID_57_" /><circle
         style="fill:#414042"
         r="3.3"
         cy="220"
         cx="1225.8"
         class="st0"
         id="XMLID_53_" /></g></g></svg>